<?xml version="1.0" encoding="UTF-8" standalone="no"?>
<svg
   xmlns:dc="http://purl.org/dc/elements/1.1/"
   xmlns:cc="http://creativecommons.org/ns#"
   xmlns:rdf="http://www.w3.org/1999/02/22-rdf-syntax-ns#"
   xmlns:svg="http://www.w3.org/2000/svg"
   xmlns="http://www.w3.org/2000/svg"
   xmlns:sodipodi="http://sodipodi.sourceforge.net/DTD/sodipodi-0.dtd"
   xmlns:inkscape="http://www.inkscape.org/namespaces/inkscape"
   width="210mm"
   height="297mm"
   viewBox="0 0 210 297"
   version="1.1"
   id="svg8"
   inkscape:version="1.0.2 (e86c870879, 2021-01-15, custom)"
   sodipodi:docname="teamshawdy.svg">
  <defs
     id="defs2">
    <inkscape:path-effect
       effect="curvestitching"
       id="path-effect951"
       is_visible="true"
       lpeversion="1"
       count="5"
       startpoint_edge_variation="0;1"
       startpoint_spacing_variation="0;1"
       endpoint_edge_variation="0;1"
       endpoint_spacing_variation="0;1"
       strokepath="M0,0 L1,0"
       prop_scale="1"
       scale_y_rel="false" />
    <rect
       x="36.049479"
       y="14.57327"
       width="82.961087"
       height="31.256352"
       id="rect866" />
    <rect
       x="36.049479"
       y="14.57327"
       width="82.366452"
       height="12.231812"
       id="rect938" />
    <rect
       x="36.049479"
       y="14.57327"
       width="82.961087"
       height="31.256352"
       id="rect1088" />
    <rect
       x="36.049479"
       y="14.57327"
       width="82.961087"
       height="31.256352"
       id="rect1122" />
  </defs>
  <sodipodi:namedview
     id="base"
     pagecolor="#ffffff"
     bordercolor="#666666"
     borderopacity="1.0"
     inkscape:pageopacity="0.0"
     inkscape:pageshadow="2"
     inkscape:zoom="0.9899495"
     inkscape:cx="505.95433"
     inkscape:cy="357.09776"
     inkscape:document-units="mm"
     inkscape:current-layer="layer1"
     inkscape:document-rotation="0"
     showgrid="false"
     inkscape:snap-bbox="true"
     inkscape:object-paths="true"
     inkscape:snap-intersection-paths="true"
     inkscape:snap-smooth-nodes="true"
     inkscape:snap-global="false"
     inkscape:window-width="1920"
     inkscape:window-height="1020"
     inkscape:window-x="0"
     inkscape:window-y="0"
     inkscape:window-maximized="1" />
  <metadata
     id="metadata5">
    <rdf:RDF>
      <cc:Work
         rdf:about="">
        <dc:format>image/svg+xml</dc:format>
        <dc:type
           rdf:resource="http://purl.org/dc/dcmitype/StillImage" />
        <dc:title />
      </cc:Work>
    </rdf:RDF>
  </metadata>
  <g
     inkscape:label="Layer 1"
     inkscape:groupmode="layer"
     id="layer1">
    <text
       xml:space="preserve"
       id="text936"
       style="font-style:normal;font-weight:normal;font-size:11.2889px;line-height:1.25;font-family:sans-serif;white-space:pre;shape-inside:url(#rect938);fill:#000000;fill-opacity:1;stroke:none;"
       x="9.9271164"
       y="0"><tspan
         style="visibility:hidden"
         x="36.048828"
         y="36.445408"><tspan
           dx="0 4.4167767 4.2121563"
           style="font-style:normal;font-variant:normal;font-weight:bold;font-stretch:normal;font-size:7.05556px;font-family:Quicksand;-inkscape-font-specification:'Quicksand Bold';text-align:center;text-anchor:middle;fill:#ffffff;fill-opacity:1">TSH</tspan></tspan></text>
    <path
       style="fill:#000000;fill-opacity:1;stroke-width:2.60517;stroke-linejoin:round"
       d=""
       id="path955"
       transform="scale(0.26458333)" />
    <path
       style="fill:#000000;fill-opacity:1;stroke-width:2.60517;stroke-linejoin:round"
       d=""
       id="path967"
       transform="scale(0.26458333)" />
    <path
       style="fill:#000000;fill-opacity:1;stroke-width:2.60517;stroke-linejoin:round"
       d=""
       id="path969"
       transform="scale(0.26458333)" />
    <path
       style="fill:#000000;fill-opacity:1;stroke-width:2.60517;stroke-linejoin:round"
       d=""
       id="path977"
       transform="scale(0.26458333)" />
    <path
       style="fill:#000000;fill-opacity:1;stroke-width:2.60517;stroke-linejoin:round"
       d=""
       id="path979"
       transform="scale(0.26458333)" />
    <path
       style="fill:#000000;fill-opacity:1;stroke-width:2.60517;stroke-linejoin:round"
       d=""
       id="path985"
       transform="scale(0.26458333)" />
    <path
       style="fill:#000000;fill-opacity:1;stroke-width:2.60517;stroke-linejoin:round"
       d=""
       id="path991"
       transform="scale(0.26458333)" />
    <circle
       style="fill:#01002a;fill-opacity:1;stroke-width:0.373718;stroke-linejoin:round"
       id="path1058"
       cx="48.738659"
       cy="48.720295"
       r="42.672356"
       inkscape:export-filename="/home/julius/Desktop/shawdylowdark.png"
       inkscape:export-xdpi="100"
       inkscape:export-ydpi="100" />
    <path
       id="rect873"
       style="fill:#fdfdfd;fill-opacity:1;stroke-width:0.362617;stroke-linejoin:round"
       d="m 32.396826,39.922462 v 16.165717 c -0.04245,4.975956 9.917498,13.502601 14.799549,13.724705 L 46.001073,67.733459 C 42.407309,67.302576 35.318919,59.807165 34.957786,56.088179 V 39.922462 Z"
       sodipodi:nodetypes="ccccccc"
       inkscape:export-filename="/home/julius/Desktop/shawdylowdark.png"
       inkscape:export-xdpi="100"
       inkscape:export-ydpi="100" />
    <path
       id="rect885"
       style="fill:#fdfdfd;fill-opacity:1;stroke-width:0.260019;stroke-linejoin:round"
       d="m 46.897038,36.197785 v 9.567052 3.177802 l 3.189385,-3.562993 v -9.181861 z m 3.189385,10.087477 -3.189385,3.810919 v 2.558925 l 3.189385,-3.480507 z m 0,3.544683 -3.189385,3.627163 v 9.097341 l 1.594612,2.447643 1.594773,-2.447643 z"
       inkscape:export-filename="/home/julius/Desktop/shawdylowdark.png"
       inkscape:export-xdpi="100"
       inkscape:export-ydpi="100" />
    <path
       id="circle835"
       style="fill:#fdfdfd;fill-opacity:1;stroke-width:0.261176;stroke-linejoin:round"
       d="m 41.417316,43.096976 a 5.9935948,6.3862186 0 0 0 -5.981208,6.386278 5.9935948,6.3862186 0 0 0 5.993573,6.386122 5.9935948,6.3862186 0 0 0 4.394108,-2.043039 5.9935948,6.3862186 0 0 0 1.599466,-4.343083 5.9935948,6.3862186 0 0 0 0,-0.01581 l -1.572389,1.878694 -0.491625,0.587573 c -0.768639,1.17436 -2.07885,1.94803 -3.566436,1.94803 -2.367311,0 -4.286423,-1.958679 -4.286423,-4.374852 0,-2.416177 1.919112,-4.374857 4.286423,-4.374857 1.50057,0 2.820224,0.787537 3.586,1.979179 l 1.013929,1.225538 v -2.434024 a 5.9935948,6.3862186 0 0 0 -4.963053,-2.805754 5.9935948,6.3862186 0 0 0 -0.01237,0 z m 5.479722,3.769598 v 2.076065 l 0.446233,-0.498511 a 5.9935948,6.3862186 0 0 0 -0.446233,-1.577554 z"
       inkscape:export-filename="/home/julius/Desktop/shawdylowdark.png"
       inkscape:export-xdpi="100"
       inkscape:export-ydpi="100" />
    <path
       id="rect839"
       style="fill:#fdfdfd;fill-opacity:1;stroke-width:0.275003;stroke-linejoin:round"
       d="m 45.667739,44.967375 -0.02598,2.461728 0.750976,0.90765 v -2.524645 z m 1.229299,1.432304 v 2.54296 l 1.114096,-1.244638 z m 1.566283,1.825008 -2.612455,3.121453 -0.25356,0.303022 -0.02583,2.450144 4.064639,-4.508054 z"
       inkscape:export-filename="/home/julius/Desktop/shawdylowdark.png"
       inkscape:export-xdpi="100"
       inkscape:export-ydpi="100" />
    <path
       id="ellipse852"
       style="fill:#fdfdfd;fill-opacity:1;stroke-width:0.261176;stroke-linejoin:round"
       d="m 55.399449,43.122488 c -3.310126,1.3e-5 -5.993522,2.859158 -5.993572,6.386123 0.06176,0.0688 0.124957,0.136119 0.189547,0.201907 l 0.50508,-0.551257 3.06e-4,0.0021 1.718108,-2.07685 c 0.765819,-1.191375 2.085315,-1.978866 3.58569,-1.978866 2.367307,-3e-6 4.286417,1.958682 4.286417,4.374857 0,2.416173 -1.91911,4.375012 -4.286417,4.37501 -1.487266,0 -2.797262,-0.773471 -3.565974,-1.947407 L 50.600415,50.42825 v 2.943086 c 0.69996,1.038513 2.36048,2.041163 4.799027,2.523491 3.31018,-1.5e-5 5.993603,-2.859254 5.993572,-6.386279 -5.4e-5,-3.526965 -2.683446,-6.386109 -5.993572,-6.386123 z m -5.306144,6.69963 -0.19017,0.21631 c 0.06286,0.0701 0.127203,0.138681 0.192989,0.205666 v -0.418532 z"
       sodipodi:nodetypes="ccccccsssccccccccccc"
       inkscape:export-filename="/home/julius/Desktop/shawdylowdark.png"
       inkscape:export-xdpi="100"
       inkscape:export-ydpi="100" />
    <path
       id="path854"
       style="fill:#fdfdfd;fill-opacity:1;stroke-width:0.275003;stroke-linejoin:round"
       d="m 51.161232,44.992887 -0.515727,0.607294 0.01084,0.0042 -3.319917,3.96681 1.154796,1.344341 1.609327,-1.756297 3.02e-4,0.0021 1.06041,-1.281888 z m -1.067927,4.829231 -1.285644,1.462041 1.288463,1.500075 v -2.958672 z m 0.507126,0.606198 v 2.943019 l 0.560801,0.652999 v -2.925806 z"
       inkscape:export-filename="/home/julius/Desktop/shawdylowdark.png"
       inkscape:export-xdpi="100"
       inkscape:export-ydpi="100" />
    <path
       id="rect906"
       style="fill:#fdfdfd;fill-opacity:1;stroke-width:0.734973;stroke-linejoin:round"
       d="m 35.900812,33.650669 -3.767093,5.312732 h 32.438202 l -3.643444,-5.312732 z"
       inkscape:export-filename="/home/julius/Desktop/shawdylowdark.png"
       inkscape:export-xdpi="100"
       inkscape:export-ydpi="100" />
    <text
       xml:space="preserve"
       id="text864"
       style="font-style:normal;font-weight:normal;font-size:16.9333px;line-height:1.25;font-family:sans-serif;white-space:pre;shape-inside:url(#rect866);fill:#000000;fill-opacity:1;stroke:none;"
       x="9.7207479"
       y="0"
       transform="matrix(0.3028823,0,0,0.3028823,24.982063,28.918723)"
       inkscape:export-filename="/home/julius/Desktop/shawdylowdark.png"
       inkscape:export-xdpi="100"
       inkscape:export-ydpi="100"><tspan
         x="61.087083"
         y="30.237521"><tspan
           style="font-style:normal;font-variant:normal;font-weight:bold;font-stretch:normal;font-size:16.9333px;font-family:Quicksand;-inkscape-font-specification:'Quicksand Bold';text-align:center;text-anchor:middle;fill:#000000;fill-opacity:1">TSH</tspan></tspan></text>
    <path
       style="fill:#fdfdfd;fill-opacity:1;stroke:none;stroke-width:0.0871913px;stroke-linecap:butt;stroke-linejoin:miter;stroke-opacity:1"
       d="m 64.571921,38.963401 c 0,0 3.256264,-3.924753 1.496839,-10.589302 -1.12948,-4.278368 -3.639723,-5.497091 -3.639723,-5.497091 0,0 2.479524,6.462611 -1.50056,10.773661 -3.980081,4.311049 3.643444,5.312732 3.643444,5.312732 z"
       id="path888"
       sodipodi:nodetypes="cscsc"
       inkscape:export-filename="/home/julius/Desktop/shawdylowdark.png"
       inkscape:export-xdpi="100"
       inkscape:export-ydpi="100" />
    <path
       style="fill:#fdfdfd;fill-opacity:1;stroke:none;stroke-width:0.0871913px;stroke-linecap:butt;stroke-linejoin:miter;stroke-opacity:1"
       d="m 32.133719,38.963401 c 0,0 -3.132614,-3.924753 -1.373189,-10.589302 1.129478,-4.278368 3.639721,-5.497091 3.639721,-5.497091 0,0 -2.479521,6.462611 1.500561,10.773661 3.980082,4.311049 -3.767093,5.312732 -3.767093,5.312732 z"
       id="path922"
       sodipodi:nodetypes="cscsc"
       inkscape:export-filename="/home/julius/Desktop/shawdylowdark.png"
       inkscape:export-xdpi="100"
       inkscape:export-ydpi="100" />
    <path
       id="path924"
       style="fill:#fdfdfd;fill-opacity:1;stroke-width:0.362617;stroke-linejoin:round"
       d="m 64.608704,39.922462 v 16.165717 c 0.04245,4.975956 -9.917503,13.502601 -14.799553,13.724705 l 1.195302,-2.079425 c 3.593764,-0.430883 10.68216,-7.926294 11.043291,-11.64528 V 39.922462 Z"
       sodipodi:nodetypes="ccccccc"
       inkscape:export-filename="/home/julius/Desktop/shawdylowdark.png"
       inkscape:export-xdpi="100"
       inkscape:export-ydpi="100" />
    <path
       id="path1051"
       style="fill:#fdfdfd;fill-opacity:1;stroke-width:0.0801375"
       d="m 84.457682,45.250046 c -0.05217,-0.01324 -0.19761,0.156212 -0.974219,1.060985 -1.207582,1.406861 -2.087895,2.325325 -3.169934,3.307378 -0.992281,0.90059 -2.329467,1.972872 -2.290945,1.837051 0.01332,-0.0469 0.166581,-0.256844 0.340583,-0.466473 0.338867,-0.408236 0.416217,-0.55561 0.269948,-0.513997 -0.05028,0.0143 -0.6217,0.48225 -1.270018,1.039865 -0.648317,0.55762 -1.490828,1.225206 -1.872106,1.483568 -0.79665,0.539821 -1.900361,1.159927 -1.869217,1.05015 0.01158,-0.04093 0.180779,-0.310396 0.375848,-0.598825 0.327071,-0.483612 1.179094,-2.23969 1.309155,-2.698178 0.08477,-0.298814 -0.04964,-0.176623 -0.882164,0.801896 -1.093673,1.285453 -1.63312,1.697909 -3.830985,2.929492 -3.665654,2.054074 -4.581363,2.777542 -5.768222,4.556633 -0.539819,0.809183 -0.904436,1.882562 -0.806871,2.375692 0.03861,0.195123 0.113618,0.418134 0.16676,0.495531 0.149987,0.218464 0.203767,0.605736 0.12294,0.885119 -0.266568,0.921127 -1.139484,2.025656 -1.997095,2.526937 -0.774924,0.452931 -1.592813,0.5196 -2.660074,0.216834 -0.514681,-0.146009 -0.991472,-0.135824 -1.332856,0.02827 -0.106829,0.05136 -0.349975,0.09341 -0.540331,0.09353 -0.987893,7.75e-4 -1.76178,0.528755 -2.674654,1.825312 -0.05052,0.07175 -0.08593,0.06627 -0.146997,-0.02265 -0.108607,-0.158213 -0.641781,0.183931 -0.887737,0.569767 l -0.179277,0.281531 -0.196083,-0.30325 c -0.097,-0.150052 -0.199395,-0.28083 -0.243084,-0.312513 l -0.05929,0.209003 7.74e-4,-7.74e-4 0.04454,0.764603 c 0.06849,1.177181 0.343413,1.698837 0.992401,1.882942 0.353064,0.100161 0.938706,-0.07991 1.262477,-0.388136 0.114215,-0.108723 0.245016,-0.169629 0.290745,-0.135371 0.326045,0.244195 0.739044,0.430438 1.039501,0.468972 0.327156,0.04197 0.370256,0.07304 0.604331,0.435007 0.518113,0.801198 0.582749,0.914862 0.767117,1.348836 0.103801,0.244322 0.318079,0.579154 0.476156,0.744051 0.301433,0.314442 1.046213,0.794118 1.146299,0.738269 0.03211,-0.01793 0.02548,-0.158081 -0.01483,-0.311371 -0.04031,-0.15331 -0.04693,-0.255143 -0.01468,-0.226407 0.560461,0.49962 0.928416,0.779641 1.375321,1.046464 0.781369,0.46652 0.858506,0.441576 0.509337,-0.163816 -0.16123,-0.279537 -0.287779,-0.527163 -0.281176,-0.550446 0.0066,-0.02324 0.176171,0.07271 0.376774,0.213453 0.200603,0.140731 0.635053,0.360082 0.96547,0.487344 l 0.600745,0.23143 -0.396168,-0.755844 c -0.217895,-0.415682 -0.375379,-0.76745 -0.349978,-0.781628 0.0254,-0.01417 0.318098,0.114544 0.650486,0.286063 0.611612,0.315573 1.841787,0.642063 2.027925,0.538196 0.0447,-0.0249 -0.06741,-0.246166 -0.24907,-0.491557 -0.534556,-0.722089 -0.560887,-0.710432 0.717771,-0.315859 1.126498,0.347619 1.532925,0.426646 1.567415,0.30505 0.0096,-0.03365 -0.159432,-0.239125 -0.375464,-0.456629 -0.216032,-0.2175 -0.412101,-0.439465 -0.435841,-0.493277 -0.02916,-0.06613 0.285877,-0.005 0.971942,0.188676 0.849959,0.239865 1.117796,0.283677 1.645134,0.268538 0.34643,-0.01 0.668153,-0.03718 0.714936,-0.06043 0.04679,-0.02327 -0.05573,-0.124357 -0.227798,-0.224715 -0.782139,-0.456179 -0.980179,-0.603517 -1.287576,-0.957144 l -0.328388,-0.377706 1.037383,0.244167 c 0.570506,0.134295 1.165694,0.253764 1.322737,0.265425 0.407771,0.03025 2.121006,-0.03776 2.221732,-0.08819 0.0465,-0.02331 -0.06197,-0.103441 -0.241004,-0.178181 -1.283146,-0.535818 -1.477173,-0.638163 -1.928872,-1.017543 -0.268237,-0.225307 -0.481132,-0.432842 -0.473123,-0.461075 0.008,-0.02823 0.225896,-0.03656 0.484222,-0.01851 0.959007,0.06693 2.480527,-0.267497 3.494212,-0.767973 0.416291,-0.205526 0.422398,-0.212961 0.224971,-0.272303 -0.111616,-0.03354 -0.57271,-0.125941 -1.024623,-0.205421 -0.451912,-0.07945 -0.933121,-0.199926 -1.069414,-0.267745 -0.246956,-0.122854 -0.245616,-0.123633 0.401579,-0.210653 0.892066,-0.119942 1.647457,-0.307885 2.597889,-0.646249 0.882439,-0.314163 2.346752,-1.034432 2.296371,-1.129581 -0.02393,-0.04521 -3.671231,-0.346373 -5.365118,-0.443001 -0.200441,-0.01139 -0.197954,-0.01561 0.111012,-0.190592 0.23411,-0.132602 0.495348,-0.179238 1.009065,-0.180191 1.647841,-0.0031 3.423377,-0.520393 5.258146,-1.531871 1.067222,-0.588341 3.370746,-2.244109 3.299535,-2.371727 -0.01584,-0.02839 -0.642722,0.204701 -1.39319,0.517981 -1.577857,0.658673 -2.22076,0.822822 -3.876249,0.990031 -1.833158,0.185147 -1.812617,0.192874 -0.985845,-0.369644 0.54746,-0.372482 0.779161,-0.479327 1.093743,-0.5045 0.732998,-0.05865 1.965237,-0.341369 2.681455,-0.615066 1.199437,-0.458348 2.53212,-1.29143 3.36163,-2.101441 0.389914,-0.380739 1.390239,-1.637779 1.354397,-1.70202 -0.01293,-0.02312 -0.523287,0.202048 -1.134066,0.500383 -0.610787,0.298347 -1.538161,0.666574 -2.060832,0.818292 -1.162379,0.337415 -3.681362,0.854086 -3.731506,0.765409 -0.0201,-0.03551 0.09878,-0.211207 0.264159,-0.390367 0.20716,-0.224409 0.555472,-0.441607 1.119337,-0.698496 2.388941,-1.088352 4.74362,-2.906825 6.583606,-5.084131 0.606445,-0.717619 2.19365,-3.010507 2.10196,-3.036518 -0.03462,-0.0098 -0.579372,0.441814 -1.210626,1.003676 -1.402836,1.248643 -2.049175,1.717972 -3.602703,2.616314 -1.420748,0.821563 -4.317461,2.308166 -4.322638,2.218315 -0.01042,-0.180936 0.551061,-0.818763 0.815948,-0.926912 0.161566,-0.06597 0.307727,-0.169442 0.324898,-0.22997 0.01716,-0.06053 0.0803,-0.09615 0.140239,-0.07915 0.121534,0.03449 1.151803,-0.6506 1.983382,-1.318913 1.352049,-1.086608 2.946783,-2.753966 3.979422,-4.160478 0.593909,-0.808938 1.622277,-2.531421 1.527364,-2.558347 -0.03803,-0.01079 -0.325708,0.198109 -0.639151,0.464258 -1.947721,1.653819 -3.989909,3.215608 -5.732791,4.384139 -1.052908,0.705933 -1.527983,0.988556 -1.500835,0.892875 0.0069,-0.02441 0.257939,-0.268208 0.557838,-0.541826 1.369814,-1.24977 2.661697,-2.782218 3.552776,-4.214152 0.426914,-0.686035 1.461605,-2.942151 1.399948,-3.052639 -0.0088,-0.01566 -0.01584,-0.02832 -0.02788,-0.03134 z"
       inkscape:export-filename="/home/julius/Desktop/shawdylowdark.png"
       inkscape:export-xdpi="100"
       inkscape:export-ydpi="100" />
    <path
       id="path1056"
       style="fill:#fdfdfd;fill-opacity:1;stroke-width:0.0801375"
       d="m 12.554581,45.250046 c 0.05217,-0.01324 0.19761,0.156212 0.974217,1.060985 1.207582,1.406861 2.087894,2.325325 3.169935,3.307378 0.99228,0.90059 2.329466,1.972872 2.290939,1.837051 -0.01333,-0.0469 -0.166576,-0.256844 -0.340579,-0.466473 -0.338867,-0.408236 -0.416218,-0.55561 -0.26995,-0.513997 0.05027,0.0143 0.621703,0.48225 1.270019,1.039865 0.648319,0.55762 1.49083,1.225206 1.872108,1.483568 0.796647,0.539821 1.90036,1.159927 1.869215,1.05015 -0.0116,-0.04093 -0.180778,-0.310396 -0.375847,-0.598825 -0.32707,-0.483612 -1.179092,-2.23969 -1.309156,-2.698178 -0.08477,-0.298814 0.04964,-0.176623 0.882165,0.801896 1.093675,1.285453 1.633119,1.697909 3.830984,2.929492 3.665652,2.054074 4.581359,2.777542 5.768217,4.556633 0.539818,0.809183 0.904434,1.882562 0.80687,2.375692 -0.03861,0.195123 -0.113621,0.418134 -0.166758,0.495531 -0.149991,0.218464 -0.20377,0.605736 -0.12294,0.885119 0.266566,0.921127 1.139481,2.025656 1.997093,2.526937 0.77492,0.452931 1.592811,0.5196 2.660074,0.216834 0.514681,-0.146009 0.991469,-0.135824 1.332857,0.02827 0.106827,0.05136 0.349972,0.09341 0.540324,0.09353 0.9879,7.75e-4 1.761783,0.528755 2.67466,1.825312 0.05051,0.07175 0.08593,0.06627 0.146995,-0.02265 0.10861,-0.158213 0.64178,0.183931 0.887738,0.569767 l 0.179274,0.281531 0.196085,-0.30325 c 0.09699,-0.150052 0.199396,-0.28083 0.243084,-0.312513 l 0.05929,0.209003 -6.19e-4,-7.74e-4 -0.04455,0.764603 c -0.06848,1.177181 -0.343413,1.698837 -0.992402,1.882942 -0.35306,0.100161 -0.938701,-0.07991 -1.262475,-0.388136 -0.114214,-0.108723 -0.245014,-0.169629 -0.290743,-0.135371 -0.326044,0.244195 -0.739042,0.430438 -1.039502,0.468972 -0.327159,0.04197 -0.370259,0.07304 -0.604332,0.435007 -0.518113,0.801198 -0.582749,0.914862 -0.767119,1.348836 -0.103798,0.244322 -0.318078,0.579154 -0.476153,0.744051 -0.301434,0.314442 -1.046212,0.794118 -1.1463,0.738269 -0.03213,-0.01793 -0.0255,-0.158081 0.01481,-0.311371 0.04031,-0.15331 0.04692,-0.255143 0.01466,-0.226407 -0.560459,0.49962 -0.928416,0.779641 -1.375315,1.046464 -0.781369,0.46652 -0.858507,0.441576 -0.509338,-0.163816 0.161229,-0.279537 0.287773,-0.527163 0.28117,-0.550446 -0.0066,-0.02324 -0.176165,0.07271 -0.376769,0.213453 -0.200605,0.140731 -0.635054,0.360082 -0.965471,0.487344 l -0.600745,0.23143 0.396169,-0.755844 c 0.217891,-0.415682 0.375378,-0.76745 0.349978,-0.781628 -0.02538,-0.01417 -0.318099,0.114544 -0.650488,0.286063 -0.61161,0.315573 -1.841783,0.642063 -2.02792,0.538196 -0.04471,-0.0249 0.06741,-0.246166 0.24907,-0.491557 0.534556,-0.722089 0.560885,-0.710432 -0.717771,-0.315859 -1.1265,0.347619 -1.532926,0.426646 -1.567418,0.30505 -0.0095,-0.03365 0.159434,-0.239125 0.375468,-0.456629 0.216031,-0.2175 0.412099,-0.439465 0.435839,-0.493277 0.02916,-0.06613 -0.285876,-0.005 -0.971941,0.188676 -0.849959,0.239865 -1.117795,0.283677 -1.645131,0.268538 -0.346434,-0.01 -0.668154,-0.03718 -0.714938,-0.06043 -0.04679,-0.02327 0.05573,-0.124357 0.227797,-0.224715 0.782139,-0.456179 0.980179,-0.603517 1.287577,-0.957144 l 0.328387,-0.377706 -1.037383,0.244167 c -0.570506,0.134295 -1.165693,0.253764 -1.322737,0.265425 -0.407771,0.03025 -2.121006,-0.03776 -2.221729,-0.08819 -0.0465,-0.02331 0.06197,-0.103441 0.241004,-0.178181 1.283144,-0.535818 1.47717,-0.638163 1.928868,-1.017543 0.268239,-0.225307 0.481135,-0.432842 0.473126,-0.461075 -0.008,-0.02823 -0.225898,-0.03656 -0.484221,-0.01851 -0.959009,0.06693 -2.480525,-0.267497 -3.494211,-0.767973 -0.416291,-0.205526 -0.4224,-0.212961 -0.224972,-0.272303 0.111618,-0.03354 0.572711,-0.125941 1.02462,-0.205421 0.451915,-0.07945 0.933122,-0.199926 1.069416,-0.267745 0.246955,-0.122854 0.245613,-0.123633 -0.401579,-0.210653 -0.892067,-0.119942 -1.647458,-0.307885 -2.597887,-0.646249 -0.882441,-0.314163 -2.34675,-1.034432 -2.296372,-1.129581 0.02393,-0.04521 3.67123,-0.346373 5.365116,-0.443001 0.200442,-0.01139 0.197958,-0.01561 -0.111012,-0.190592 -0.23411,-0.132602 -0.495349,-0.179238 -1.009064,-0.180191 -1.647839,-0.0031 -3.423375,-0.520393 -5.258145,-1.531871 -1.067223,-0.588341 -3.370742,-2.244109 -3.299531,-2.371727 0.01584,-0.02839 0.642719,0.204701 1.393188,0.517981 1.577852,0.658673 2.220756,0.822822 3.876247,0.990031 1.833157,0.185147 1.812618,0.192874 0.985846,-0.369644 -0.547457,-0.372486 -0.779157,-0.479331 -1.09374,-0.504504 -0.732996,-0.05865 -1.965239,-0.341369 -2.681453,-0.615066 -1.199437,-0.458348 -2.532118,-1.29143 -3.36163,-2.101441 -0.38991,-0.380739 -1.390239,-1.637779 -1.354394,-1.70202 0.01293,-0.02312 0.523288,0.202048 1.134065,0.500383 0.610782,0.298347 1.53816,0.666574 2.06083,0.818292 1.162378,0.337415 3.681361,0.854086 3.731503,0.765409 0.02008,-0.03551 -0.09878,-0.211207 -0.264159,-0.390367 -0.207159,-0.224409 -0.555471,-0.441607 -1.119334,-0.698496 -2.388941,-1.088352 -4.743616,-2.906825 -6.583604,-5.084131 -0.606446,-0.717619 -2.1936515,-3.010507 -2.1019597,-3.036518 0.034625,-0.0098 0.5793717,0.441814 1.2106237,1.003676 1.402838,1.248643 2.049175,1.717972 3.602703,2.616314 1.420748,0.821563 4.317461,2.308166 4.322638,2.218315 0.01043,-0.181108 -0.551046,-0.818935 -0.815931,-0.927084 -0.16157,-0.06597 -0.307732,-0.169442 -0.324902,-0.22997 -0.01718,-0.06053 -0.08029,-0.09615 -0.140241,-0.07915 -0.121533,0.03449 -1.151796,-0.6506 -1.983374,-1.318913 -1.352057,-1.086546 -2.946789,-2.753904 -3.979427,-4.160416 -0.593906,-0.808938 -1.622272,-2.531421 -1.527361,-2.558347 0.03804,-0.01079 0.325704,0.198109 0.639148,0.464258 1.94772,1.653819 3.989908,3.215608 5.732789,4.384139 1.052909,0.705933 1.527982,0.988556 1.500838,0.892875 -0.0069,-0.02441 -0.25794,-0.268208 -0.557838,-0.541825 -1.369819,-1.249771 -2.661699,-2.782219 -3.552778,-4.214153 -0.426912,-0.686035 -1.461603,-2.942151 -1.399948,-3.052639 0.0088,-0.01566 0.01584,-0.02832 0.0279,-0.03134 z"
       inkscape:export-filename="/home/julius/Desktop/shawdylowdark.png"
       inkscape:export-xdpi="100"
       inkscape:export-ydpi="100" />
    <path
       id="path1060"
       style="fill:#000000;fill-opacity:1;stroke-width:0.936335;stroke-linejoin:round"
       d="m 64.087221,155.33126 v 41.74249 c -0.109616,12.84872 25.608577,34.86589 38.214819,35.4394 l -3.086465,-5.36941 C 89.935901,226.03113 71.632534,206.67677 70.700032,197.07375 v -41.74249 z"
       sodipodi:nodetypes="ccccccc"
       inkscape:export-filename="/home/julius/Desktop/shawdylowtrans.png"
       inkscape:export-xdpi="62.400002"
       inkscape:export-ydpi="62.400002" />
    <path
       id="path1062"
       style="fill:#000000;fill-opacity:1;stroke-width:0.67141;stroke-linejoin:round"
       d="m 101.5291,145.71355 v 24.70367 8.20559 l 8.23551,-9.20022 v -23.70904 z m 8.23551,26.04749 -8.23551,9.8404 v 6.60756 l 8.23551,-8.98723 z m 0,9.15294 -8.23551,9.36592 v 23.4908 l 4.11755,6.32021 4.11796,-6.32021 z"
       inkscape:export-filename="/home/julius/Desktop/shawdylowtrans.png"
       inkscape:export-xdpi="62.400002"
       inkscape:export-ydpi="62.400002" />
    <path
       id="path1064"
       style="fill:#000000;fill-opacity:1;stroke-width:0.674398;stroke-linejoin:round"
       d="m 87.379579,163.52837 a 15.476428,16.490246 0 0 0 -15.444443,16.4904 15.476428,16.490246 0 0 0 15.476372,16.48999 15.476428,16.490246 0 0 0 11.346297,-5.27545 15.476428,16.490246 0 0 0 4.130075,-11.21454 15.476428,16.490246 0 0 0 0,-0.0408 l -4.060155,4.85109 -1.269461,1.51721 c -1.984748,3.03238 -5.367925,5.03012 -9.209113,5.03012 -6.112778,0 -11.068234,-5.05762 -11.068234,-11.29657 0,-6.23896 4.955456,-11.29659 11.068234,-11.29659 3.874714,0 7.282274,2.03355 9.259632,5.11056 l 2.618127,3.16455 v -6.28504 a 15.476428,16.490246 0 0 0 -12.815402,-7.24491 15.476428,16.490246 0 0 0 -0.03193,0 z m 14.149521,9.73371 v 5.36073 l 1.15225,-1.28723 a 15.476428,16.490246 0 0 0 -1.15225,-4.0735 z"
       inkscape:export-filename="/home/julius/Desktop/shawdylowtrans.png"
       inkscape:export-xdpi="62.400002"
       inkscape:export-ydpi="62.400002" />
    <path
       id="path1066"
       style="fill:#000000;fill-opacity:1;stroke-width:0.710103;stroke-linejoin:round"
       d="m 98.354855,168.35804 -0.0671,6.35658 1.939135,2.3437 v -6.51904 z m 3.174245,3.69844 v 6.56633 l 2.87678,-3.21385 z m 4.0444,4.71246 -6.745775,8.0601 -0.65474,0.78245 -0.0667,6.32667 10.495555,-11.64052 z"
       inkscape:export-filename="/home/julius/Desktop/shawdylowtrans.png"
       inkscape:export-xdpi="62.400002"
       inkscape:export-ydpi="62.400002" />
    <path
       id="path1068"
       style="fill:#000000;fill-opacity:1;stroke-width:0.674398;stroke-linejoin:round"
       d="m 123.4837,163.59425 c -8.54728,3e-5 -15.47624,7.3828 -15.47637,16.48999 0.15948,0.17766 0.32266,0.35148 0.48944,0.52136 l 1.3042,-1.42344 7.9e-4,0.005 4.43643,-5.36275 c 1.97747,-3.07633 5.38462,-5.10976 9.25883,-5.10976 6.11277,0 11.06822,5.05764 11.06822,11.29659 0,6.23895 -4.95545,11.29699 -11.06822,11.29698 -3.84036,0 -7.22298,-1.99723 -9.20792,-5.02852 l -3.19728,-3.8213 v 7.59952 c 1.80741,2.68161 6.09514,5.27061 12.39186,6.51606 8.54742,-4e-5 15.47645,-7.38305 15.47637,-16.4904 -1.4e-4,-9.10719 -6.92909,-16.48996 -15.47637,-16.49 z m -13.70132,17.29952 -0.49105,0.55855 c 0.16232,0.18102 0.32846,0.35809 0.49833,0.53106 v -1.08072 z"
       sodipodi:nodetypes="ccccccsssccccccccccc"
       inkscape:export-filename="/home/julius/Desktop/shawdylowtrans.png"
       inkscape:export-xdpi="62.400002"
       inkscape:export-ydpi="62.400002" />
    <path
       id="path1070"
       style="fill:#000000;fill-opacity:1;stroke-width:0.710103;stroke-linejoin:round"
       d="m 112.53994,168.42392 -1.33169,1.56813 0.028,0.011 -8.57256,10.24294 2.98187,3.4713 4.15554,-4.53504 7.8e-4,0.005 2.73815,-3.31004 z m -2.75756,12.46985 -3.31974,3.77522 3.32702,3.87344 v -7.63977 z m 1.30948,1.5653 v 7.59935 l 1.44808,1.68615 v -7.5549 z"
       inkscape:export-filename="/home/julius/Desktop/shawdylowtrans.png"
       inkscape:export-xdpi="62.400002"
       inkscape:export-ydpi="62.400002" />
    <path
       id="path1072"
       style="fill:#000000;fill-opacity:1;stroke-width:1.89782;stroke-linejoin:round"
       d="m 73.135077,139.13648 -9.727243,13.71833 H 147.1685 l -9.40796,-13.71833 z"
       inkscape:export-filename="/home/julius/Desktop/shawdylowtrans.png"
       inkscape:export-xdpi="62.400002"
       inkscape:export-ydpi="62.400002" />
    <text
       xml:space="preserve"
       id="text1076"
       style="font-style:normal;font-weight:normal;font-size:16.9333px;line-height:1.25;font-family:sans-serif;white-space:pre;shape-inside:url(#rect1088);fill:#ffffff;fill-opacity:1;stroke:none;"
       x="9.7207479"
       y="0"
       transform="matrix(0.78209092,0,0,0.78209092,44.941107,126.91784)"
       inkscape:export-filename="/home/julius/Desktop/shawdylowtrans.png"
       inkscape:export-xdpi="62.400002"
       inkscape:export-ydpi="62.400002"><tspan
         x="61.087083"
         y="30.237521"><tspan
           style="font-style:normal;font-variant:normal;font-weight:bold;font-stretch:normal;font-size:16.9333px;font-family:Quicksand;-inkscape-font-specification:'Quicksand Bold';text-align:center;text-anchor:middle;fill:#ffffff;fill-opacity:1">TSH</tspan></tspan></text>
    <path
       style="fill:#000000;fill-opacity:1;stroke:none;stroke-width:0.225142px;stroke-linecap:butt;stroke-linejoin:miter;stroke-opacity:1"
       d="m 147.1685,152.85481 c 0,0 8.4082,-10.13434 3.86508,-27.34328 -2.9165,-11.04744 -9.39835,-14.19438 -9.39835,-14.19438 0,0 6.40253,16.68751 -3.87469,27.81933 -10.27721,11.13183 9.40796,13.71833 9.40796,13.71833 z"
       id="path1078"
       sodipodi:nodetypes="cscsc"
       inkscape:export-filename="/home/julius/Desktop/shawdylowtrans.png"
       inkscape:export-xdpi="62.400002"
       inkscape:export-ydpi="62.400002" />
    <path
       style="fill:#000000;fill-opacity:1;stroke:none;stroke-width:0.225142px;stroke-linecap:butt;stroke-linejoin:miter;stroke-opacity:1"
       d="m 63.407834,152.85481 c 0,0 -8.088913,-10.13434 -3.545794,-27.34328 2.916495,-11.04744 9.398347,-14.19438 9.398347,-14.19438 0,0 -6.402525,16.68751 3.87469,27.81933 10.277214,11.13183 -9.727243,13.71833 -9.727243,13.71833 z"
       id="path1080"
       sodipodi:nodetypes="cscsc"
       inkscape:export-filename="/home/julius/Desktop/shawdylowtrans.png"
       inkscape:export-xdpi="62.400002"
       inkscape:export-ydpi="62.400002" />
    <path
       id="path1082"
       style="fill:#000000;fill-opacity:1;stroke-width:0.936335;stroke-linejoin:round"
       d="m 147.26348,155.33126 v 41.74249 c 0.10962,12.84872 -25.60859,34.86589 -38.21483,35.4394 l 3.08646,-5.36941 c 9.27968,-1.11261 27.58306,-20.46697 28.51556,-30.06999 v -41.74249 z"
       sodipodi:nodetypes="ccccccc"
       inkscape:export-filename="/home/julius/Desktop/shawdylowtrans.png"
       inkscape:export-xdpi="62.400002"
       inkscape:export-ydpi="62.400002" />
    <path
       id="path1084"
       style="fill:#000000;fill-opacity:1;stroke-width:0.206928"
       d="m 198.51674,169.08794 c -0.1347,-0.0342 -0.51026,0.40337 -2.51559,2.73964 -3.11817,3.63274 -5.39128,6.00436 -8.18528,8.54018 -2.56223,2.32547 -6.01506,5.09427 -5.91559,4.74356 0.0344,-0.12109 0.43014,-0.66321 0.87944,-1.20451 0.87501,-1.05413 1.07474,-1.43467 0.69705,-1.32722 -0.12982,0.0369 -1.60533,1.24525 -3.27939,2.6851 -1.67406,1.43986 -3.84956,3.16368 -4.83408,3.83081 -2.05708,1.39391 -4.90704,2.99512 -4.82662,2.71166 0.0299,-0.1057 0.4668,-0.8015 0.9705,-1.54627 0.84455,-1.24876 3.04461,-5.78324 3.38045,-6.96713 0.2189,-0.77158 -0.12818,-0.45606 -2.27789,2.07063 -2.82404,3.31925 -4.21698,4.38427 -9.89222,7.56442 -9.46531,5.30395 -11.82982,7.17206 -14.89448,11.76596 -1.3939,2.08944 -2.3354,4.86108 -2.08347,6.13442 0.0997,0.50384 0.29338,1.07969 0.4306,1.27954 0.38729,0.56411 0.52616,1.56411 0.31745,2.28552 -0.68832,2.3785 -2.94233,5.23057 -5.15682,6.52496 -2.00098,1.16954 -4.1129,1.34169 -6.86874,0.5599 -1.32899,-0.37702 -2.56014,-0.35072 -3.44165,0.073 -0.27585,0.13262 -0.90369,0.2412 -1.39522,0.24151 -2.5509,0.002 -4.5492,1.36533 -6.90639,4.71325 -0.13044,0.18528 -0.22189,0.17113 -0.37957,-0.0585 -0.28044,-0.40853 -1.65718,0.47494 -2.29228,1.47123 l -0.46292,0.72696 -0.50632,-0.78304 c -0.25046,-0.38746 -0.51487,-0.72515 -0.62768,-0.80696 l -0.1531,0.53968 0.002,-0.002 0.11502,1.97433 c 0.17684,3.03967 0.88675,4.38667 2.56254,4.86206 0.91167,0.25863 2.42389,-0.20633 3.25992,-1.00223 0.29492,-0.28074 0.63267,-0.43801 0.75075,-0.34955 0.8419,0.63055 1.90833,1.11146 2.68416,1.21096 0.84477,0.10837 0.95606,0.18861 1.56048,1.12326 1.33785,2.06882 1.50475,2.36232 1.98082,3.48291 0.26803,0.63088 0.82133,1.49547 1.22951,1.92126 0.77835,0.81194 2.70149,2.05054 2.95993,1.90633 0.0829,-0.0463 0.0658,-0.40819 -0.0383,-0.80401 -0.10409,-0.39587 -0.12117,-0.65882 -0.0379,-0.58462 1.4472,1.2901 2.39732,2.01316 3.5513,2.70214 2.01762,1.20463 2.2168,1.14022 1.31519,-0.423 -0.41632,-0.72181 -0.74309,-1.36122 -0.72604,-1.42134 0.017,-0.06 0.4549,0.18774 0.97289,0.55117 0.51799,0.36339 1.63981,0.92979 2.493,1.2584 l 1.55122,0.59759 -1.02297,-1.95171 c -0.56264,-1.07336 -0.96929,-1.98168 -0.9037,-2.01829 0.0656,-0.0366 0.82138,0.29577 1.67966,0.73866 1.57928,0.81486 4.75579,1.65791 5.23643,1.38971 0.11543,-0.0643 -0.17407,-0.63564 -0.64314,-1.26928 -1.38031,-1.86455 -1.4483,-1.83445 1.8534,-0.8156 2.9088,0.89761 3.95826,1.10167 4.04732,0.78769 0.0247,-0.0869 -0.41168,-0.61746 -0.96951,-1.17909 -0.55783,-0.56162 -1.06411,-1.13477 -1.12541,-1.27372 -0.0753,-0.17077 0.73818,-0.0129 2.50971,0.48719 2.19473,0.61937 2.88633,0.7325 4.248,0.69341 0.89454,-0.0257 1.72528,-0.096 1.84608,-0.15603 0.12083,-0.0601 -0.1439,-0.32111 -0.58821,-0.58025 -2.01961,-1.17793 -2.53098,-1.55838 -3.32473,-2.4715 l -0.84795,-0.9753 2.67869,0.63048 c 1.47314,0.34677 3.01001,0.65526 3.41552,0.68537 1.05293,0.0781 5.47678,-0.0975 5.73687,-0.22773 0.12006,-0.0602 -0.16001,-0.2671 -0.62231,-0.46009 -3.31329,-1.38357 -3.8143,-1.64784 -4.98066,-2.62746 -0.69263,-0.58178 -1.24236,-1.11767 -1.22168,-1.19057 0.0207,-0.0729 0.5833,-0.0944 1.25034,-0.0478 2.47631,0.17283 6.40512,-0.69072 9.02262,-1.98303 1.07493,-0.5307 1.0907,-0.5499 0.58091,-0.70313 -0.28821,-0.0866 -1.47883,-0.3252 -2.64574,-0.53043 -1.16691,-0.20516 -2.40947,-0.51624 -2.7614,-0.69136 -0.63768,-0.31723 -0.63422,-0.31924 1.03694,-0.54394 2.30346,-0.30971 4.254,-0.79501 6.70817,-1.66872 2.2786,-0.81122 6.05969,-2.67107 5.9296,-2.91676 -0.0618,-0.11673 -9.47971,-0.89439 -13.8536,-1.1439 -0.51757,-0.0294 -0.51115,-0.0403 0.28665,-0.49214 0.60451,-0.3424 1.27907,-0.46282 2.60557,-0.46528 4.25499,-0.008 8.83971,-1.34374 13.57738,-3.95554 2.75574,-1.51919 8.70381,-5.79465 8.51993,-6.12418 -0.0409,-0.0733 -1.65961,0.52857 -3.59744,1.33751 -4.07428,1.7008 -5.73436,2.12466 -10.0091,2.55642 -4.73351,0.47808 -4.68047,0.49803 -2.54561,-0.95448 1.41363,-0.96181 2.01192,-1.2377 2.82422,-1.3027 1.89272,-0.15145 5.07456,-0.88147 6.92395,-1.5882 3.09714,-1.18353 6.53834,-3.33468 8.68027,-5.42626 1.00682,-0.98313 3.58982,-4.22901 3.49727,-4.39489 -0.0334,-0.0597 -1.35121,0.52172 -2.92834,1.29207 -1.57715,0.77038 -3.97178,1.7212 -5.3214,2.11296 -3.00145,0.87126 -9.50587,2.20539 -9.63535,1.97641 -0.0519,-0.0917 0.25506,-0.54537 0.6821,-1.00799 0.53492,-0.57946 1.43432,-1.1403 2.89031,-1.80363 6.16863,-2.8103 12.24879,-7.50589 16.99993,-13.12805 1.56594,-1.853 5.66436,-7.77361 5.4276,-7.84078 -0.0894,-0.0254 -1.49603,1.14084 -3.12603,2.59166 -3.62235,3.2242 -5.2913,4.43608 -9.30276,6.75574 -3.6686,2.12141 -11.14838,5.96006 -11.16175,5.72805 -0.0269,-0.46721 1.42293,-2.11418 2.10691,-2.39344 0.41719,-0.17034 0.7946,-0.43752 0.83894,-0.59381 0.0443,-0.15631 0.20734,-0.24829 0.36212,-0.20437 0.31382,0.0891 2.97414,-1.67996 5.12141,-3.40565 3.49121,-2.8058 7.60907,-7.11118 10.27551,-10.74302 1.53357,-2.08881 4.18898,-6.53654 3.9439,-6.60607 -0.0982,-0.0279 -0.84103,0.51155 -1.65039,1.19879 -5.02933,4.27043 -10.30259,8.30322 -14.80299,11.32055 -2.71878,1.82284 -3.9455,2.55261 -3.8754,2.30555 0.0179,-0.063 0.66604,-0.69255 1.44043,-1.39908 3.53708,-3.22711 6.87293,-7.18414 9.17384,-10.88162 1.10236,-1.77145 3.7741,-7.59711 3.61489,-7.8824 -0.0226,-0.0404 -0.0409,-0.0731 -0.072,-0.0809 z"
       inkscape:export-filename="/home/julius/Desktop/shawdylowtrans.png"
       inkscape:export-xdpi="62.400002"
       inkscape:export-ydpi="62.400002" />
    <path
       id="path1086"
       style="fill:#000000;fill-opacity:1;stroke-width:0.206928"
       d="m 12.851345,169.08794 c 0.1347,-0.0342 0.51026,0.40337 2.515586,2.73964 3.118171,3.63274 5.391279,6.00436 8.185281,8.54018 2.562228,2.32547 6.015057,5.09427 5.915576,4.74356 -0.03441,-0.12109 -0.430127,-0.66321 -0.87943,-1.20451 -0.875011,-1.05413 -1.074742,-1.43467 -0.697055,-1.32722 0.129819,0.0369 1.605336,1.24525 3.279394,2.6851 1.674065,1.43986 3.849563,3.16368 4.834083,3.83081 2.057071,1.39391 4.907038,2.99512 4.826616,2.71166 -0.02995,-0.1057 -0.466798,-0.8015 -0.970497,-1.54627 -0.844549,-1.24876 -3.044606,-5.78324 -3.380452,-6.96713 -0.218891,-0.77158 0.128185,-0.45606 2.277892,2.07063 2.824044,3.31925 4.216977,4.38427 9.892218,7.56442 9.465305,5.30395 11.829806,7.17206 14.894466,11.76596 1.393897,2.08944 2.335394,4.86108 2.083467,6.13442 -0.09969,0.50384 -0.293387,1.07969 -0.430596,1.27954 -0.3873,0.56411 -0.526167,1.56411 -0.317451,2.28552 0.688318,2.3785 2.942325,5.23057 5.156816,6.52496 2.000969,1.16954 4.112896,1.34169 6.86874,0.5599 1.328991,-0.37702 2.560135,-0.35072 3.441654,0.073 0.275843,0.13262 0.903682,0.2412 1.395202,0.24151 2.550918,0.002 4.549207,1.36533 6.906404,4.71325 0.130436,0.18528 0.221886,0.17113 0.379564,-0.0585 0.280449,-0.40853 1.65718,0.47494 2.292284,1.47123 l 0.462913,0.72696 0.506323,-0.78304 c 0.250456,-0.38746 0.514873,-0.72515 0.627682,-0.80696 l 0.153095,0.53968 -0.0016,-0.002 -0.115023,1.97433 c -0.176838,3.03967 -0.886749,4.38667 -2.562542,4.86206 -0.911659,0.25863 -2.423879,-0.20633 -3.259916,-1.00223 -0.294919,-0.28074 -0.632664,-0.43801 -0.750745,-0.34955 -0.841897,0.63055 -1.908325,1.11146 -2.684161,1.21096 -0.844776,0.10837 -0.956067,0.18861 -1.560483,1.12326 -1.337852,2.06882 -1.504751,2.36232 -1.980825,3.48291 -0.268023,0.63088 -0.821329,1.49547 -1.229502,1.92126 -0.778352,0.81194 -2.70149,2.05054 -2.959932,1.90633 -0.08297,-0.0463 -0.06585,-0.40819 0.03825,-0.80401 0.104089,-0.39587 0.121162,-0.65882 0.03785,-0.58462 -1.447194,1.2901 -2.397318,2.01316 -3.551285,2.70214 -2.01762,1.20463 -2.216803,1.14022 -1.315193,-0.423 0.416321,-0.72181 0.743078,-1.36122 0.726028,-1.42134 -0.01698,-0.06 -0.454888,0.18774 -0.972879,0.55117 -0.517995,0.36339 -1.639811,0.92979 -2.493001,1.2584 l -1.55122,0.59759 1.022972,-1.95171 c 0.562628,-1.07336 0.969285,-1.98168 0.903698,-2.01829 -0.06554,-0.0366 -0.821383,0.29577 -1.679663,0.73866 -1.579276,0.81486 -4.755782,1.65791 -5.236417,1.38971 -0.115436,-0.0643 0.174062,-0.63564 0.643138,-1.26928 1.380309,-1.86455 1.448296,-1.83445 -1.8534,-0.8156 -2.908805,0.89761 -3.958261,1.10167 -4.047326,0.78769 -0.02464,-0.0869 0.411685,-0.61746 0.969519,-1.17909 0.557827,-0.56162 1.064105,-1.13477 1.125406,-1.27372 0.07531,-0.17077 -0.738177,-0.0129 -2.509707,0.48719 -2.194732,0.61937 -2.886328,0.7325 -4.247994,0.69341 -0.894548,-0.0257 -1.725283,-0.096 -1.846085,-0.15603 -0.120832,-0.0601 0.143897,-0.32111 0.588208,-0.58025 2.019609,-1.17793 2.53098,-1.55838 3.324732,-2.4715 l 0.847948,-0.9753 -2.67869,0.63048 c -1.473139,0.34677 -3.010008,0.65526 -3.415522,0.68537 -1.052929,0.0781 -5.476777,-0.0975 -5.736862,-0.22773 -0.120058,-0.0602 0.160008,-0.2671 0.622311,-0.46009 3.313286,-1.38357 3.814293,-1.64784 4.98065,-2.62746 0.692635,-0.58178 1.242366,-1.11767 1.221688,-1.19057 -0.02065,-0.0729 -0.583307,-0.0944 -1.250337,-0.0478 -2.476316,0.17283 -6.405116,-0.69072 -9.022618,-1.98303 -1.07493,-0.5307 -1.090704,-0.5499 -0.580914,-0.70313 0.288216,-0.0866 1.478833,-0.3252 2.645736,-0.53043 1.166916,-0.20516 2.409471,-0.51624 2.761404,-0.69136 0.637677,-0.31723 0.634213,-0.31924 -1.036943,-0.54394 -2.303459,-0.30971 -4.254002,-0.79501 -6.708161,-1.66872 -2.278606,-0.81122 -6.059689,-2.67107 -5.929605,-2.91676 0.06179,-0.11673 9.479708,-0.89439 13.853596,-1.1439 0.517572,-0.0294 0.511159,-0.0403 -0.286652,-0.49214 -0.604509,-0.3424 -1.27907,-0.46282 -2.605565,-0.46528 -4.254985,-0.008 -8.839707,-1.34374 -13.577379,-3.95554 -2.755741,-1.51919 -8.703798,-5.79465 -8.519921,-6.12418 0.0409,-0.0733 1.659605,0.52857 3.597436,1.33751 4.074268,1.7008 5.73435,2.12466 10.009095,2.55642 4.733506,0.47808 4.680472,0.49803 2.545614,-0.95448 -1.413636,-0.96181 -2.011923,-1.2377 -2.824226,-1.3027 -1.892715,-0.15145 -5.074565,-0.88147 -6.923945,-1.5882 -3.097139,-1.18353 -6.538337,-3.33468 -8.68027,-5.42626 -1.006809,-0.98313 -3.589822,-4.22901 -3.497262,-4.39489 0.03339,-0.0597 1.351212,0.52172 2.928338,1.29207 1.577138,0.77038 3.971776,1.7212 5.321395,2.11296 3.001447,0.87126 9.505867,2.20539 9.635342,1.97641 0.05185,-0.0917 -0.255055,-0.54537 -0.6821,-1.00799 -0.534919,-0.57946 -1.434316,-1.1403 -2.890303,-1.80363 -6.16863,-2.8103 -12.24878,-7.50589 -16.999926,-13.12805 -1.5659411,-1.853 -5.6643626,-7.77361 -5.4275996,-7.84078 0.08941,-0.0254 1.4960315,1.14084 3.1260255,2.59166 3.6223541,3.2242 5.2913021,4.43608 9.3027611,6.75574 3.668599,2.12141 11.148381,5.96006 11.161748,5.72805 0.02694,-0.46765 -1.422889,-2.11462 -2.106866,-2.39388 -0.417198,-0.17034 -0.794612,-0.43753 -0.838949,-0.59382 -0.04435,-0.15631 -0.207333,-0.24828 -0.362124,-0.20437 -0.313819,0.0891 -2.974124,-1.67995 -5.121392,-3.40564 -3.491228,-2.80564 -7.609083,-7.11103 -10.275521,-10.74287 -1.5335611,-2.08881 -4.1889703,-6.53653 -3.9438945,-6.60606 0.098215,-0.0279 0.8410218,0.51155 1.6503834,1.19879 5.0293281,4.27042 10.3025871,8.30321 14.8029871,11.32055 2.718779,1.82283 3.945496,2.55261 3.875406,2.30555 -0.01784,-0.063 -0.666045,-0.69256 -1.440429,-1.39908 -3.537093,-3.22711 -6.872935,-7.18414 -9.173844,-10.88162 -1.102357,-1.77146 -3.774095,-7.59711 -3.614893,-7.88241 0.02261,-0.0404 0.0409,-0.0731 0.07203,-0.0809 z"
       inkscape:export-filename="/home/julius/Desktop/shawdylowtrans.png"
       inkscape:export-xdpi="62.400002"
       inkscape:export-ydpi="62.400002" />
    <circle
       style="fill:#f0f1ff;fill-opacity:1;stroke-width:0.373718;stroke-linejoin:round"
       id="circle1092"
       cx="154.75208"
       cy="50.400795"
       r="42.672356"
       inkscape:export-filename="/home/julius/Desktop/shawdylowlight.png"
       inkscape:export-xdpi="100"
       inkscape:export-ydpi="100" />
    <path
       id="path1094"
       style="fill:#01002a;fill-opacity:1;stroke-width:0.362617;stroke-linejoin:round"
       d="m 138.41024,41.602962 v 16.165717 c -0.0424,4.975956 9.91749,13.502601 14.79954,13.724705 l -1.1953,-2.079425 C 148.42072,68.983076 141.33233,61.487665 140.9712,57.768679 V 41.602962 Z"
       sodipodi:nodetypes="ccccccc"
       inkscape:export-filename="/home/julius/Desktop/shawdylowlight.png"
       inkscape:export-xdpi="100"
       inkscape:export-ydpi="100" />
    <path
       id="path1096"
       style="fill:#01002a;fill-opacity:1;stroke-width:0.260019;stroke-linejoin:round"
       d="m 152.91045,37.878285 v 9.567052 3.177802 l 3.18938,-3.562993 v -9.181861 z m 3.18938,10.087477 -3.18938,3.810919 v 2.558925 l 3.18938,-3.480507 z m 0,3.544683 -3.18938,3.627163 v 9.097341 l 1.59461,2.447643 1.59477,-2.447643 z"
       inkscape:export-filename="/home/julius/Desktop/shawdylowlight.png"
       inkscape:export-xdpi="100"
       inkscape:export-ydpi="100" />
    <path
       id="path1098"
       style="fill:#01002a;fill-opacity:1;stroke-width:0.261176;stroke-linejoin:round"
       d="m 147.43073,44.777476 a 5.9935948,6.3862186 0 0 0 -5.98121,6.386278 5.9935948,6.3862186 0 0 0 5.99357,6.386122 5.9935948,6.3862186 0 0 0 4.39411,-2.043039 5.9935948,6.3862186 0 0 0 1.59946,-4.343083 5.9935948,6.3862186 0 0 0 0,-0.01581 l -1.57238,1.878694 -0.49163,0.587573 c -0.76864,1.17436 -2.07885,1.94803 -3.56644,1.94803 -2.36731,0 -4.28642,-1.958679 -4.28642,-4.374852 0,-2.416177 1.91911,-4.374857 4.28642,-4.374857 1.50057,0 2.82023,0.787537 3.586,1.979179 l 1.01393,1.225538 v -2.434024 a 5.9935948,6.3862186 0 0 0 -4.96305,-2.805754 5.9935948,6.3862186 0 0 0 -0.0124,0 z m 5.47972,3.769598 v 2.076065 l 0.44623,-0.498511 a 5.9935948,6.3862186 0 0 0 -0.44623,-1.577554 z"
       inkscape:export-filename="/home/julius/Desktop/shawdylowlight.png"
       inkscape:export-xdpi="100"
       inkscape:export-ydpi="100" />
    <path
       id="path1100"
       style="fill:#01002a;fill-opacity:1;stroke-width:0.275003;stroke-linejoin:round"
       d="m 151.68115,46.647875 -0.026,2.461728 0.75097,0.90765 v -2.524645 z m 1.2293,1.432304 v 2.54296 l 1.11409,-1.244638 z m 1.56628,1.825008 -2.61245,3.121453 -0.25356,0.303022 -0.0258,2.450144 4.06463,-4.508054 z"
       inkscape:export-filename="/home/julius/Desktop/shawdylowlight.png"
       inkscape:export-xdpi="100"
       inkscape:export-ydpi="100" />
    <path
       id="path1102"
       style="fill:#01002a;fill-opacity:1;stroke-width:0.261176;stroke-linejoin:round"
       d="m 161.41286,44.802988 c -3.31013,1.3e-5 -5.99352,2.859158 -5.99357,6.386123 0.0618,0.0688 0.12495,0.136119 0.18954,0.201907 l 0.50508,-0.551257 3.1e-4,0.0021 1.71811,-2.07685 c 0.76582,-1.191375 2.08531,-1.978866 3.58569,-1.978866 2.3673,-3e-6 4.28641,1.958682 4.28641,4.374857 0,2.416173 -1.91911,4.375012 -4.28641,4.37501 -1.48727,0 -2.79726,-0.773471 -3.56598,-1.947407 l -1.23822,-1.479855 v 2.943086 c 0.69996,1.038513 2.36048,2.041163 4.79903,2.523491 3.31018,-1.5e-5 5.9936,-2.859254 5.99357,-6.386279 -5e-5,-3.526965 -2.68344,-6.386109 -5.99357,-6.386123 z m -5.30615,6.69963 -0.19017,0.21631 c 0.0629,0.0701 0.12721,0.138681 0.19299,0.205666 v -0.418532 z"
       sodipodi:nodetypes="ccccccsssccccccccccc"
       inkscape:export-filename="/home/julius/Desktop/shawdylowlight.png"
       inkscape:export-xdpi="100"
       inkscape:export-ydpi="100" />
    <path
       id="path1104"
       style="fill:#01002a;fill-opacity:1;stroke-width:0.275003;stroke-linejoin:round"
       d="m 157.17464,46.673387 -0.51573,0.607294 0.0108,0.0042 -3.31991,3.96681 1.15479,1.344341 1.60933,-1.756297 3e-4,0.0021 1.06041,-1.281888 z m -1.06793,4.829231 -1.28564,1.462041 1.28846,1.500075 v -2.958672 z m 0.50713,0.606198 v 2.943019 l 0.5608,0.652999 v -2.925806 z"
       inkscape:export-filename="/home/julius/Desktop/shawdylowlight.png"
       inkscape:export-xdpi="100"
       inkscape:export-ydpi="100" />
    <path
       id="path1106"
       style="fill:#01002a;fill-opacity:1;stroke-width:0.734973;stroke-linejoin:round"
       d="m 141.91422,35.331169 -3.76709,5.312732 h 32.4382 l -3.64344,-5.312732 z"
       inkscape:export-filename="/home/julius/Desktop/shawdylowlight.png"
       inkscape:export-xdpi="100"
       inkscape:export-ydpi="100" />
    <text
       xml:space="preserve"
       id="text1110"
       style="font-style:normal;font-weight:normal;font-size:16.9333px;line-height:1.25;font-family:sans-serif;white-space:pre;shape-inside:url(#rect1122);fill:#ffffff;fill-opacity:1;stroke:none;"
       x="9.7207479"
       y="0"
       transform="matrix(0.3028823,0,0,0.3028823,130.99547,30.599223)"
       inkscape:export-filename="/home/julius/Desktop/shawdylowlight.png"
       inkscape:export-xdpi="100"
       inkscape:export-ydpi="100"><tspan
         x="61.087083"
         y="30.237521"><tspan
           style="font-style:normal;font-variant:normal;font-weight:bold;font-stretch:normal;font-size:16.9333px;font-family:Quicksand;-inkscape-font-specification:'Quicksand Bold';text-align:center;text-anchor:middle;fill:#ffffff;fill-opacity:1">TSH</tspan></tspan></text>
    <path
       style="fill:#01002a;fill-opacity:1;stroke:none;stroke-width:0.0871913px;stroke-linecap:butt;stroke-linejoin:miter;stroke-opacity:1"
       d="m 170.58533,40.643901 c 0,0 3.25626,-3.924753 1.49684,-10.589302 -1.12948,-4.278368 -3.63972,-5.497091 -3.63972,-5.497091 0,0 2.47952,6.462611 -1.50056,10.773661 -3.98008,4.311049 3.64344,5.312732 3.64344,5.312732 z"
       id="path1112"
       sodipodi:nodetypes="cscsc"
       inkscape:export-filename="/home/julius/Desktop/shawdylowlight.png"
       inkscape:export-xdpi="100"
       inkscape:export-ydpi="100" />
    <path
       style="fill:#01002a;fill-opacity:1;stroke:none;stroke-width:0.0871913px;stroke-linecap:butt;stroke-linejoin:miter;stroke-opacity:1"
       d="m 138.14713,40.643901 c 0,0 -3.13262,-3.924753 -1.37319,-10.589302 1.12948,-4.278368 3.63972,-5.497091 3.63972,-5.497091 0,0 -2.47952,6.462611 1.50056,10.773661 3.98008,4.311049 -3.76709,5.312732 -3.76709,5.312732 z"
       id="path1114"
       sodipodi:nodetypes="cscsc"
       inkscape:export-filename="/home/julius/Desktop/shawdylowlight.png"
       inkscape:export-xdpi="100"
       inkscape:export-ydpi="100" />
    <path
       id="path1116"
       style="fill:#01002a;fill-opacity:1;stroke-width:0.362617;stroke-linejoin:round"
       d="m 170.62211,41.602962 v 16.165717 c 0.0425,4.975956 -9.9175,13.502601 -14.79955,13.724705 l 1.1953,-2.079425 c 3.59377,-0.430883 10.68216,-7.926294 11.04329,-11.64528 V 41.602962 Z"
       sodipodi:nodetypes="ccccccc"
       inkscape:export-filename="/home/julius/Desktop/shawdylowlight.png"
       inkscape:export-xdpi="100"
       inkscape:export-ydpi="100" />
    <path
       id="path1118"
       style="fill:#01002a;fill-opacity:1;stroke-width:0.0801375"
       d="m 190.47109,46.930546 c -0.0522,-0.01324 -0.19761,0.156212 -0.97422,1.060985 -1.20758,1.406861 -2.08789,2.325325 -3.16993,3.307378 -0.99228,0.90059 -2.32947,1.972872 -2.29095,1.837051 0.0133,-0.0469 0.16658,-0.256844 0.34059,-0.466473 0.33886,-0.408236 0.41621,-0.55561 0.26994,-0.513997 -0.0503,0.0143 -0.6217,0.48225 -1.27001,1.039865 -0.64832,0.55762 -1.49083,1.225206 -1.87211,1.483568 -0.79665,0.539821 -1.90036,1.159927 -1.86922,1.05015 0.0116,-0.04093 0.18078,-0.310396 0.37585,-0.598825 0.32707,-0.483612 1.1791,-2.23969 1.30916,-2.698178 0.0848,-0.298814 -0.0496,-0.176623 -0.88217,0.801896 -1.09367,1.285453 -1.63312,1.697909 -3.83098,2.929492 -3.66566,2.054074 -4.58137,2.777542 -5.76822,4.556633 -0.53982,0.809183 -0.90444,1.882562 -0.80688,2.375692 0.0386,0.195123 0.11362,0.418134 0.16676,0.495531 0.14999,0.218464 0.20377,0.605736 0.12294,0.885119 -0.26656,0.921127 -1.13948,2.025656 -1.99709,2.526937 -0.77492,0.452931 -1.59281,0.5196 -2.66007,0.216834 -0.51469,-0.146009 -0.99148,-0.135824 -1.33286,0.02827 -0.10683,0.05136 -0.34998,0.09341 -0.54033,0.09353 -0.98789,7.75e-4 -1.76178,0.528755 -2.67466,1.825312 -0.0505,0.07175 -0.0859,0.06627 -0.14699,-0.02265 -0.10861,-0.158213 -0.64178,0.183931 -0.88774,0.569767 l -0.17928,0.281531 -0.19608,-0.30325 c -0.097,-0.150052 -0.19939,-0.28083 -0.24308,-0.312513 l -0.0593,0.209003 7.7e-4,-7.74e-4 0.0445,0.764603 c 0.0685,1.177181 0.34341,1.698837 0.9924,1.882942 0.35307,0.100161 0.93871,-0.07991 1.26248,-0.388136 0.11421,-0.108723 0.24501,-0.169629 0.29074,-0.135371 0.32605,0.244195 0.73905,0.430438 1.0395,0.468972 0.32716,0.04197 0.37026,0.07304 0.60434,0.435007 0.51811,0.801198 0.58274,0.914862 0.76711,1.348836 0.1038,0.244322 0.31808,0.579154 0.47616,0.744051 0.30143,0.314442 1.04621,0.794118 1.1463,0.738269 0.0321,-0.01793 0.0255,-0.158081 -0.0148,-0.311371 -0.0403,-0.15331 -0.0469,-0.255143 -0.0147,-0.226407 0.56046,0.49962 0.92841,0.779641 1.37532,1.046464 0.78137,0.46652 0.8585,0.441576 0.50934,-0.163816 -0.16123,-0.279537 -0.28778,-0.527163 -0.28118,-0.550446 0.007,-0.02324 0.17617,0.07271 0.37677,0.213453 0.20061,0.140731 0.63506,0.360082 0.96547,0.487344 l 0.60075,0.23143 -0.39617,-0.755844 c -0.21789,-0.415682 -0.37538,-0.76745 -0.34998,-0.781628 0.0254,-0.01417 0.3181,0.114544 0.65049,0.286063 0.61161,0.315573 1.84179,0.642063 2.02792,0.538196 0.0447,-0.0249 -0.0674,-0.246166 -0.24907,-0.491557 -0.53455,-0.722089 -0.56088,-0.710432 0.71777,-0.315859 1.1265,0.347619 1.53293,0.426646 1.56742,0.30505 0.01,-0.03365 -0.15943,-0.239125 -0.37546,-0.456629 -0.21604,-0.2175 -0.41211,-0.439465 -0.43585,-0.493277 -0.0292,-0.06613 0.28588,-0.005 0.97195,0.188676 0.84996,0.239865 1.11779,0.283677 1.64513,0.268538 0.34643,-0.01 0.66815,-0.03718 0.71494,-0.06043 0.0468,-0.02327 -0.0557,-0.124357 -0.2278,-0.224715 -0.78214,-0.456179 -0.98018,-0.603517 -1.28758,-0.957144 l -0.32839,-0.377706 1.03739,0.244167 c 0.5705,0.134295 1.16569,0.253764 1.32273,0.265425 0.40778,0.03025 2.12101,-0.03776 2.22174,-0.08819 0.0465,-0.02331 -0.062,-0.103441 -0.24101,-0.178181 -1.28314,-0.535818 -1.47717,-0.638163 -1.92887,-1.017543 -0.26824,-0.225307 -0.48113,-0.432842 -0.47312,-0.461075 0.008,-0.02823 0.22589,-0.03656 0.48422,-0.01851 0.95901,0.06693 2.48053,-0.267497 3.49421,-0.767973 0.41629,-0.205526 0.4224,-0.212961 0.22497,-0.272303 -0.11161,-0.03354 -0.57271,-0.125941 -1.02462,-0.205421 -0.45191,-0.07945 -0.93312,-0.199926 -1.06941,-0.267745 -0.24696,-0.122854 -0.24562,-0.123633 0.40157,-0.210653 0.89207,-0.119942 1.64746,-0.307885 2.59789,-0.646249 0.88244,-0.314163 2.34676,-1.034432 2.29637,-1.129581 -0.0239,-0.04521 -3.67123,-0.346373 -5.36511,-0.443001 -0.20044,-0.01139 -0.19796,-0.01561 0.11101,-0.190592 0.23411,-0.132602 0.49535,-0.179238 1.00906,-0.180191 1.64784,-0.0031 3.42338,-0.520393 5.25815,-1.531871 1.06722,-0.588341 3.37075,-2.244109 3.29953,-2.371727 -0.0158,-0.02839 -0.64272,0.204701 -1.39319,0.517981 -1.57785,0.658673 -2.22076,0.822822 -3.87624,0.990031 -1.83316,0.185147 -1.81262,0.192874 -0.98585,-0.369644 0.54746,-0.372482 0.77916,-0.479327 1.09374,-0.5045 0.733,-0.05865 1.96524,-0.341369 2.68146,-0.615066 1.19944,-0.458348 2.53212,-1.29143 3.36163,-2.101441 0.38991,-0.380739 1.39024,-1.637779 1.3544,-1.70202 -0.0129,-0.02312 -0.52329,0.202048 -1.13407,0.500383 -0.61079,0.298347 -1.53816,0.666574 -2.06083,0.818292 -1.16238,0.337415 -3.68136,0.854086 -3.73151,0.765409 -0.0201,-0.03551 0.0988,-0.211207 0.26416,-0.390367 0.20716,-0.224409 0.55547,-0.441607 1.11934,-0.698496 2.38894,-1.088352 4.74362,-2.906825 6.5836,-5.084131 0.60645,-0.717619 2.19365,-3.010507 2.10196,-3.036518 -0.0346,-0.0098 -0.57937,0.441814 -1.21062,1.003676 -1.40284,1.248643 -2.04918,1.717972 -3.60271,2.616314 -1.42074,0.821563 -4.31746,2.308166 -4.32263,2.218315 -0.0104,-0.180936 0.55106,-0.818763 0.81594,-0.926912 0.16157,-0.06597 0.30773,-0.169442 0.3249,-0.22997 0.0172,-0.06053 0.0803,-0.09615 0.14024,-0.07915 0.12154,0.03449 1.1518,-0.6506 1.98338,-1.318913 1.35205,-1.086608 2.94679,-2.753966 3.97943,-4.160478 0.5939,-0.808938 1.62227,-2.531421 1.52736,-2.558347 -0.038,-0.01079 -0.32571,0.198109 -0.63915,0.464258 -1.94772,1.653819 -3.98991,3.215608 -5.73279,4.384139 -1.05291,0.705933 -1.52799,0.988556 -1.50084,0.892875 0.007,-0.02441 0.25794,-0.268208 0.55784,-0.541826 1.36981,-1.24977 2.6617,-2.782218 3.55278,-4.214152 0.42691,-0.686035 1.4616,-2.942151 1.39994,-3.052639 -0.009,-0.01566 -0.0158,-0.02832 -0.0279,-0.03134 z"
       inkscape:export-filename="/home/julius/Desktop/shawdylowlight.png"
       inkscape:export-xdpi="100"
       inkscape:export-ydpi="100" />
    <path
       id="path1120"
       style="fill:#01002a;fill-opacity:1;stroke-width:0.0801375"
       d="m 118.56799,46.930546 c 0.0522,-0.01324 0.19761,0.156212 0.97422,1.060985 1.20758,1.406861 2.08789,2.325325 3.16993,3.307378 0.99228,0.90059 2.32947,1.972872 2.29094,1.837051 -0.0133,-0.0469 -0.16657,-0.256844 -0.34058,-0.466473 -0.33886,-0.408236 -0.41622,-0.55561 -0.26995,-0.513997 0.0503,0.0143 0.62171,0.48225 1.27002,1.039865 0.64832,0.55762 1.49083,1.225206 1.87211,1.483568 0.79665,0.539821 1.90036,1.159927 1.86921,1.05015 -0.0116,-0.04093 -0.18077,-0.310396 -0.37584,-0.598825 -0.32707,-0.483612 -1.17909,-2.23969 -1.30916,-2.698178 -0.0848,-0.298814 0.0496,-0.176623 0.88217,0.801896 1.09367,1.285453 1.63312,1.697909 3.83098,2.929492 3.66565,2.054074 4.58136,2.777542 5.76822,4.556633 0.53982,0.809183 0.90443,1.882562 0.80687,2.375692 -0.0386,0.195123 -0.11362,0.418134 -0.16676,0.495531 -0.14999,0.218464 -0.20377,0.605736 -0.12294,0.885119 0.26657,0.921127 1.13948,2.025656 1.99709,2.526937 0.77492,0.452931 1.59281,0.5196 2.66008,0.216834 0.51468,-0.146009 0.99147,-0.135824 1.33285,0.02827 0.10683,0.05136 0.34998,0.09341 0.54033,0.09353 0.9879,7.75e-4 1.76178,0.528755 2.67466,1.825312 0.0505,0.07175 0.0859,0.06627 0.14699,-0.02265 0.10861,-0.158213 0.64178,0.183931 0.88774,0.569767 l 0.17927,0.281531 0.19609,-0.30325 c 0.097,-0.150052 0.1994,-0.28083 0.24308,-0.312513 l 0.0593,0.209003 -6.2e-4,-7.74e-4 -0.0445,0.764603 c -0.0685,1.177181 -0.34341,1.698837 -0.9924,1.882942 -0.35306,0.100161 -0.9387,-0.07991 -1.26247,-0.388136 -0.11422,-0.108723 -0.24502,-0.169629 -0.29075,-0.135371 -0.32604,0.244195 -0.73904,0.430438 -1.0395,0.468972 -0.32716,0.04197 -0.37026,0.07304 -0.60433,0.435007 -0.51811,0.801198 -0.58275,0.914862 -0.76712,1.348836 -0.1038,0.244322 -0.31808,0.579154 -0.47615,0.744051 -0.30144,0.314442 -1.04621,0.794118 -1.1463,0.738269 -0.0321,-0.01793 -0.0255,-0.158081 0.0148,-0.311371 0.0403,-0.15331 0.0469,-0.255143 0.0147,-0.226407 -0.56046,0.49962 -0.92842,0.779641 -1.37532,1.046464 -0.78137,0.46652 -0.8585,0.441576 -0.50933,-0.163816 0.16122,-0.279537 0.28777,-0.527163 0.28117,-0.550446 -0.007,-0.02324 -0.17617,0.07271 -0.37677,0.213453 -0.20061,0.140731 -0.63506,0.360082 -0.96547,0.487344 l -0.60075,0.23143 0.39617,-0.755844 c 0.21789,-0.415682 0.37538,-0.76745 0.34998,-0.781628 -0.0254,-0.01417 -0.3181,0.114544 -0.65049,0.286063 -0.61161,0.315573 -1.84178,0.642063 -2.02792,0.538196 -0.0447,-0.0249 0.0674,-0.246166 0.24907,-0.491557 0.53456,-0.722089 0.56088,-0.710432 -0.71777,-0.315859 -1.1265,0.347619 -1.53293,0.426646 -1.56742,0.30505 -0.01,-0.03365 0.15943,-0.239125 0.37547,-0.456629 0.21603,-0.2175 0.4121,-0.439465 0.43584,-0.493277 0.0292,-0.06613 -0.28588,-0.005 -0.97194,0.188676 -0.84996,0.239865 -1.1178,0.283677 -1.64513,0.268538 -0.34644,-0.01 -0.66816,-0.03718 -0.71494,-0.06043 -0.0468,-0.02327 0.0557,-0.124357 0.22779,-0.224715 0.78214,-0.456179 0.98018,-0.603517 1.28758,-0.957144 l 0.32839,-0.377706 -1.03738,0.244167 c -0.57051,0.134295 -1.1657,0.253764 -1.32274,0.265425 -0.40777,0.03025 -2.12101,-0.03776 -2.22173,-0.08819 -0.0465,-0.02331 0.062,-0.103441 0.241,-0.178181 1.28315,-0.535818 1.47717,-0.638163 1.92887,-1.017543 0.26824,-0.225307 0.48114,-0.432842 0.47313,-0.461075 -0.008,-0.02823 -0.2259,-0.03656 -0.48422,-0.01851 -0.95901,0.06693 -2.48053,-0.267497 -3.49421,-0.767973 -0.4163,-0.205526 -0.4224,-0.212961 -0.22498,-0.272303 0.11162,-0.03354 0.57271,-0.125941 1.02462,-0.205421 0.45192,-0.07945 0.93313,-0.199926 1.06942,-0.267745 0.24695,-0.122854 0.24561,-0.123633 -0.40158,-0.210653 -0.89207,-0.119942 -1.64746,-0.307885 -2.59789,-0.646249 -0.88244,-0.314163 -2.34675,-1.034432 -2.29637,-1.129581 0.0239,-0.04521 3.67123,-0.346373 5.36512,-0.443001 0.20044,-0.01139 0.19796,-0.01561 -0.11101,-0.190592 -0.23411,-0.132602 -0.49535,-0.179238 -1.00907,-0.180191 -1.64784,-0.0031 -3.42337,-0.520393 -5.25814,-1.531871 -1.06723,-0.588341 -3.37075,-2.244109 -3.29953,-2.371727 0.0158,-0.02839 0.64271,0.204701 1.39318,0.517981 1.57786,0.658673 2.22076,0.822822 3.87625,0.990031 1.83316,0.185147 1.81262,0.192874 0.98585,-0.369644 -0.54746,-0.372486 -0.77916,-0.479331 -1.09374,-0.504504 -0.733,-0.05865 -1.96524,-0.341369 -2.68146,-0.615066 -1.19943,-0.458348 -2.53211,-1.29143 -3.36163,-2.101441 -0.38991,-0.380739 -1.39024,-1.637779 -1.35439,-1.70202 0.0129,-0.02312 0.52329,0.202048 1.13406,0.500383 0.61079,0.298347 1.53816,0.666574 2.06083,0.818292 1.16238,0.337415 3.68137,0.854086 3.73151,0.765409 0.0201,-0.03551 -0.0988,-0.211207 -0.26416,-0.390367 -0.20716,-0.224409 -0.55547,-0.441607 -1.11934,-0.698496 -2.38894,-1.088352 -4.74361,-2.906825 -6.5836,-5.084131 -0.60645,-0.717619 -2.19365,-3.010507 -2.10196,-3.036518 0.0346,-0.0098 0.57937,0.441814 1.21062,1.003676 1.40284,1.248643 2.04918,1.717972 3.60271,2.616314 1.42075,0.821563 4.31746,2.308166 4.32264,2.218315 0.0104,-0.181108 -0.55105,-0.818935 -0.81594,-0.927084 -0.16157,-0.06597 -0.30773,-0.169442 -0.3249,-0.22997 -0.0172,-0.06053 -0.0803,-0.09615 -0.14024,-0.07915 -0.12153,0.03449 -1.15179,-0.6506 -1.98337,-1.318913 -1.35206,-1.086546 -2.94679,-2.753904 -3.97943,-4.160416 -0.59391,-0.808938 -1.62227,-2.531421 -1.52736,-2.558347 0.038,-0.01079 0.3257,0.198109 0.63915,0.464258 1.94772,1.653819 3.98991,3.215608 5.73279,4.384139 1.05291,0.705933 1.52798,0.988556 1.50083,0.892875 -0.007,-0.02441 -0.25794,-0.268208 -0.55783,-0.541825 -1.36982,-1.249771 -2.6617,-2.782219 -3.55278,-4.214153 -0.42691,-0.686035 -1.4616,-2.942151 -1.39995,-3.052639 0.009,-0.01566 0.0158,-0.02832 0.0279,-0.03134 z"
       inkscape:export-filename="/home/julius/Desktop/shawdylowlight.png"
       inkscape:export-xdpi="100"
       inkscape:export-ydpi="100" />
  </g>
</svg>
