<?xml version="1.0" encoding="UTF-8" standalone="no"?>
<svg
   xmlns:dc="http://purl.org/dc/elements/1.1/"
   xmlns:cc="http://creativecommons.org/ns#"
   xmlns:rdf="http://www.w3.org/1999/02/22-rdf-syntax-ns#"
   xmlns:svg="http://www.w3.org/2000/svg"
   xmlns="http://www.w3.org/2000/svg"
   xmlns:sodipodi="http://sodipodi.sourceforge.net/DTD/sodipodi-0.dtd"
   xmlns:inkscape="http://www.inkscape.org/namespaces/inkscape"
   width="210mm"
   height="297mm"
   viewBox="0 0 210 297"
   version="1.1"
   id="svg8"
   inkscape:version="1.0.2 (e86c870879, 2021-01-15, custom)"
   sodipodi:docname="teamshawdy.svg">
  <defs
     id="defs2">
    <inkscape:path-effect
       effect="curvestitching"
       id="path-effect951"
       is_visible="true"
       lpeversion="1"
       count="5"
       startpoint_edge_variation="0;1"
       startpoint_spacing_variation="0;1"
       endpoint_edge_variation="0;1"
       endpoint_spacing_variation="0;1"
       strokepath="M0,0 L1,0"
       prop_scale="1"
       scale_y_rel="false" />
    <rect
       x="36.049479"
       y="14.57327"
       width="82.961087"
       height="31.256352"
       id="rect866" />
    <rect
       x="36.049479"
       y="14.57327"
       width="82.366452"
       height="12.231812"
       id="rect938" />
  </defs>
  <sodipodi:namedview
     id="base"
     pagecolor="#ffffff"
     bordercolor="#666666"
     borderopacity="1.0"
     inkscape:pageopacity="0.0"
     inkscape:pageshadow="2"
     inkscape:zoom="0.49497475"
     inkscape:cx="241.06907"
     inkscape:cy="195.54329"
     inkscape:document-units="mm"
     inkscape:current-layer="layer1"
     inkscape:document-rotation="0"
     showgrid="false"
     inkscape:snap-bbox="true"
     inkscape:object-paths="true"
     inkscape:snap-intersection-paths="true"
     inkscape:snap-smooth-nodes="true"
     inkscape:snap-global="false"
     inkscape:window-width="1920"
     inkscape:window-height="1020"
     inkscape:window-x="0"
     inkscape:window-y="0"
     inkscape:window-maximized="1" />
  <metadata
     id="metadata5">
    <rdf:RDF>
      <cc:Work
         rdf:about="">
        <dc:format>image/svg+xml</dc:format>
        <dc:type
           rdf:resource="http://purl.org/dc/dcmitype/StillImage" />
        <dc:title />
      </cc:Work>
    </rdf:RDF>
  </metadata>
  <g
     inkscape:label="Layer 1"
     inkscape:groupmode="layer"
     id="layer1">
    <path
       id="rect873"
       style="fill:#000000;fill-opacity:1;stroke-width:0.936335;stroke-linejoin:round"
       d="m 61.96797,56.588144 v 41.742485 c -0.109616,12.848721 25.608577,34.865891 38.21482,35.439401 l -3.086462,-5.36941 C 87.81665,127.28801 69.513283,107.93365 68.580781,98.330629 V 56.588144 Z"
       sodipodi:nodetypes="ccccccc" />
    <path
       id="rect885"
       style="fill:#000000;fill-opacity:1;stroke-width:0.67141;stroke-linejoin:round"
       d="m 99.409853,46.970426 v 24.703671 8.205596 l 8.235507,-9.200221 V 46.970426 Z m 8.235507,26.047491 -8.235507,9.840408 v 6.607556 l 8.235507,-8.987231 z m 0,9.152943 -8.235507,9.365919 v 23.490801 l 4.117547,6.32021 4.11796,-6.32021 z" />
    <path
       id="circle835"
       style="fill:#000000;fill-opacity:1;stroke-width:0.674398;stroke-linejoin:round"
       d="m 85.260328,64.785249 a 15.476428,16.490246 0 0 0 -15.444443,16.490398 15.476428,16.490246 0 0 0 15.476372,16.489996 15.476428,16.490246 0 0 0 11.346294,-5.275456 15.476428,16.490246 0 0 0 4.130079,-11.21454 15.476428,16.490246 0 0 0 0,-0.04083 l -4.06016,4.851091 -1.269457,1.517208 c -1.984748,3.032385 -5.367925,5.030127 -9.209113,5.030127 -6.112778,0 -11.068234,-5.057626 -11.068234,-11.296574 0,-6.238958 4.955456,-11.296584 11.068234,-11.296584 3.874714,0 7.282274,2.033546 9.259632,5.110558 l 2.618127,3.164543 v -6.28504 a 15.476428,16.490246 0 0 0 -12.815402,-7.244909 15.476428,16.490246 0 0 0 -0.03193,0 z m 14.149525,9.733711 v 5.360733 L 100.5621,78.592457 A 15.476428,16.490246 0 0 0 99.409853,74.51896 Z" />
    <path
       id="rect839"
       style="fill:#000000;fill-opacity:1;stroke-width:0.710103;stroke-linejoin:round"
       d="m 96.235606,69.614922 -0.06709,6.356577 1.939141,2.343699 v -6.51904 z m 3.174247,3.698438 v 6.566333 l 2.876777,-3.213854 z m 4.044397,4.712465 -6.74578,8.060095 -0.654734,0.782451 -0.06669,6.326668 10.495554,-11.640522 z" />
    <path
       id="ellipse852"
       style="fill:#000000;fill-opacity:1;stroke-width:0.674398;stroke-linejoin:round"
       d="m 121.36445,64.851127 c -8.54728,3.3e-5 -15.47624,7.382806 -15.47637,16.489997 0.15948,0.177652 0.32266,0.35148 0.48944,0.521357 l 1.3042,-1.423436 7.9e-4,0.0055 4.43643,-5.362759 c 1.97747,-3.076323 5.38462,-5.109752 9.25883,-5.109752 6.11277,-7e-6 11.06822,5.057634 11.06822,11.296584 0,6.238949 -4.95545,11.296988 -11.06822,11.296981 -3.84036,0 -7.22298,-1.997226 -9.20792,-5.028517 l -3.19728,-3.821301 v 7.59952 c 1.80741,2.68161 6.09514,5.270613 12.39186,6.516061 8.54742,-3.8e-5 15.47645,-7.383055 15.47637,-16.4904 -1.4e-4,-9.107191 -6.92909,-16.489964 -15.47637,-16.489998 z m -13.70132,17.299523 -0.49105,0.558546 c 0.16232,0.181023 0.32846,0.358097 0.49833,0.531063 v -1.080716 z"
       sodipodi:nodetypes="ccccccsssccccccccccc" />
    <path
       id="path854"
       style="fill:#000000;fill-opacity:1;stroke-width:0.710103;stroke-linejoin:round"
       d="m 110.42069,69.680798 -1.33169,1.568131 0.028,0.01095 -8.57256,10.242943 2.98187,3.471303 4.15554,-4.53504 7.8e-4,0.0055 2.73815,-3.310043 z m -2.75756,12.469852 -3.31974,3.775224 3.32702,3.873436 v -7.639767 z m 1.30948,1.5653 v 7.599349 l 1.44808,1.686149 v -7.554902 z" />
    <path
       id="rect906"
       style="fill:#000000;fill-opacity:1;stroke-width:1.89782;stroke-linejoin:round"
       d="M 71.015826,40.393363 61.288583,54.111694 H 145.04925 L 135.64129,40.393363 Z" />
    <text
       xml:space="preserve"
       id="text936"
       style="font-style:normal;font-weight:normal;font-size:11.2889px;line-height:1.25;font-family:sans-serif;white-space:pre;shape-inside:url(#rect938);fill:#000000;fill-opacity:1;stroke:none;"
       x="9.9271164"
       y="0"><tspan
         style="visibility:hidden"
         x="36.048828"
         y="36.445408"><tspan
           dx="0 4.4167767 4.2121563"
           style="font-style:normal;font-variant:normal;font-weight:bold;font-stretch:normal;font-size:7.05556px;font-family:Quicksand;-inkscape-font-specification:'Quicksand Bold';text-align:center;text-anchor:middle;fill:#ffffff;fill-opacity:1">TSH</tspan></tspan></text>
    <text
       xml:space="preserve"
       id="text864"
       style="font-style:normal;font-weight:normal;font-size:16.9333px;line-height:1.25;font-family:sans-serif;white-space:pre;shape-inside:url(#rect866);fill:#000000;fill-opacity:1;stroke:none;"
       x="9.7207479"
       y="0"
       transform="matrix(0.78209092,0,0,0.78209092,42.821856,28.174716)"><tspan
         x="61.087083"
         y="30.237521"><tspan
           style="font-style:normal;font-variant:normal;font-weight:bold;font-stretch:normal;font-size:16.9333px;font-family:Quicksand;-inkscape-font-specification:'Quicksand Bold';text-align:center;text-anchor:middle;fill:#ffffff;fill-opacity:1">TSH</tspan></tspan></text>
    <path
       style="fill:#000000;fill-opacity:1;stroke:#000000;stroke-width:0.225142px;stroke-linecap:butt;stroke-linejoin:miter;stroke-opacity:1"
       d="m 145.04925,54.111694 c 0,0 8.4082,-10.134347 3.86508,-27.343287 -2.9165,-11.047437 -9.39835,-14.194375 -9.39835,-14.194375 0,0 6.40253,16.687504 -3.87469,27.819331 -10.27721,11.131824 9.40796,13.718331 9.40796,13.718331 z"
       id="path888"
       sodipodi:nodetypes="cscsc" />
    <path
       style="fill:#000000;fill-opacity:1;stroke:#000000;stroke-width:0.225142px;stroke-linecap:butt;stroke-linejoin:miter;stroke-opacity:1"
       d="m 61.288583,54.111694 c 0,0 -8.088913,-10.134347 -3.545794,-27.343287 2.916495,-11.047437 9.398347,-14.194375 9.398347,-14.194375 0,0 -6.402525,16.687504 3.87469,27.819331 10.277214,11.131824 -9.727243,13.718331 -9.727243,13.718331 z"
       id="path922"
       sodipodi:nodetypes="cscsc" />
    <path
       id="path924"
       style="fill:#000000;fill-opacity:1;stroke-width:0.936335;stroke-linejoin:round"
       d="m 145.14423,56.588144 v 41.742485 c 0.10962,12.848721 -25.60859,34.865891 -38.21483,35.439401 l 3.08646,-5.36941 c 9.27968,-1.11261 27.58306,-20.46697 28.51556,-30.069991 V 56.588144 Z"
       sodipodi:nodetypes="ccccccc" />
    <path
       style="fill:#000000;fill-opacity:1;stroke-width:2.60517;stroke-linejoin:round"
       d=""
       id="path955"
       transform="scale(0.26458333)" />
    <path
       style="fill:#000000;fill-opacity:1;stroke-width:2.60517;stroke-linejoin:round"
       d=""
       id="path967"
       transform="scale(0.26458333)" />
    <path
       style="fill:#000000;fill-opacity:1;stroke-width:2.60517;stroke-linejoin:round"
       d=""
       id="path969"
       transform="scale(0.26458333)" />
    <path
       style="fill:#000000;fill-opacity:1;stroke-width:2.60517;stroke-linejoin:round"
       d=""
       id="path977"
       transform="scale(0.26458333)" />
    <path
       style="fill:#000000;fill-opacity:1;stroke-width:2.60517;stroke-linejoin:round"
       d=""
       id="path979"
       transform="scale(0.26458333)" />
    <path
       style="fill:#000000;fill-opacity:1;stroke-width:2.60517;stroke-linejoin:round"
       d=""
       id="path985"
       transform="scale(0.26458333)" />
    <path
       style="fill:#000000;fill-opacity:1;stroke-width:2.60517;stroke-linejoin:round"
       d=""
       id="path991"
       transform="scale(0.26458333)" />
    <path
       id="path1051"
       style="fill:#000000;stroke-width:0.206928"
       d="m 196.39749,70.344824 c -0.1347,-0.03418 -0.51026,0.403363 -2.51559,2.739633 -3.11817,3.632742 -5.39128,6.004363 -8.18528,8.540182 -2.56223,2.325469 -6.01506,5.094274 -5.91559,4.743562 0.0344,-0.121092 0.43014,-0.663213 0.87944,-1.204507 0.87501,-1.054132 1.07474,-1.434675 0.69705,-1.327223 -0.12982,0.03692 -1.60533,1.245245 -3.27939,2.685098 -1.67406,1.439866 -3.84956,3.16368 -4.83408,3.830812 -2.05708,1.393905 -4.90704,2.995119 -4.82662,2.711657 0.0299,-0.105699 0.4668,-0.801494 0.9705,-1.546264 0.84455,-1.248764 3.04461,-5.783239 3.38045,-6.967129 0.2189,-0.771587 -0.12818,-0.456069 -2.27789,2.070625 -2.82404,3.319246 -4.21698,4.384274 -9.89222,7.56442 -9.46531,5.303949 -11.82982,7.17206 -14.89448,11.76596 -1.3939,2.08944 -2.3354,4.86108 -2.08347,6.13442 0.0997,0.50384 0.29338,1.07969 0.4306,1.27954 0.38729,0.56411 0.52616,1.56411 0.31745,2.28552 -0.68832,2.3785 -2.94233,5.23057 -5.15682,6.52496 -2.00098,1.16954 -4.1129,1.34169 -6.86874,0.5599 -1.32899,-0.37702 -2.56014,-0.35072 -3.44165,0.073 -0.27585,0.13262 -0.90369,0.2412 -1.39522,0.24151 -2.5509,0.002 -4.5492,1.36533 -6.90639,4.71325 -0.13044,0.18528 -0.22189,0.17113 -0.37957,-0.0585 -0.28044,-0.40853 -1.65718,0.47494 -2.29228,1.47123 l -0.46292,0.72696 -0.50632,-0.78304 c -0.25046,-0.38746 -0.51487,-0.72515 -0.62768,-0.80696 l -0.1531,0.53968 0.002,-0.002 0.11502,1.97433 c 0.17684,3.03967 0.88675,4.38667 2.56254,4.86206 0.91167,0.25863 2.42389,-0.20633 3.25992,-1.00223 0.29492,-0.28074 0.63267,-0.43801 0.75075,-0.34955 0.8419,0.63055 1.90833,1.11146 2.68416,1.21096 0.84477,0.10837 0.95606,0.18861 1.56048,1.12326 1.33785,2.06882 1.50475,2.36232 1.98082,3.48291 0.26803,0.63088 0.82133,1.49547 1.22951,1.92126 0.77835,0.81194 2.70149,2.05054 2.95993,1.90633 0.0829,-0.0463 0.0658,-0.40819 -0.0383,-0.80401 -0.10409,-0.39587 -0.12117,-0.65882 -0.0379,-0.58462 1.4472,1.2901 2.39732,2.01316 3.5513,2.70214 2.01762,1.20463 2.2168,1.14022 1.31519,-0.423 -0.41632,-0.72181 -0.74309,-1.36122 -0.72604,-1.42134 0.017,-0.06 0.4549,0.18774 0.97289,0.55117 0.51799,0.36339 1.63981,0.92979 2.493,1.2584 l 1.55122,0.59759 -1.02297,-1.95171 c -0.56264,-1.07336 -0.96929,-1.98168 -0.9037,-2.01829 0.0656,-0.0366 0.82138,0.29577 1.67966,0.73866 1.57928,0.81486 4.75579,1.65791 5.23643,1.38971 0.11543,-0.0643 -0.17407,-0.63564 -0.64314,-1.26928 -1.38031,-1.86455 -1.4483,-1.83445 1.8534,-0.8156 2.9088,0.89761 3.95826,1.10167 4.04732,0.78769 0.0247,-0.0869 -0.41168,-0.61746 -0.96951,-1.17909 -0.55783,-0.56162 -1.06411,-1.13477 -1.12541,-1.27372 -0.0753,-0.17077 0.73818,-0.0129 2.50971,0.48719 2.19473,0.61937 2.88633,0.7325 4.248,0.69341 0.89454,-0.0257 1.72528,-0.096 1.84608,-0.15603 0.12083,-0.0601 -0.1439,-0.32111 -0.58821,-0.58025 -2.01961,-1.17793 -2.53098,-1.55838 -3.32473,-2.4715 l -0.84795,-0.9753 2.67869,0.63048 c 1.47314,0.34677 3.01001,0.65526 3.41552,0.68537 1.05293,0.0781 5.47678,-0.0975 5.73687,-0.22773 0.12006,-0.0602 -0.16001,-0.2671 -0.62231,-0.46009 -3.31329,-1.38357 -3.8143,-1.64784 -4.98066,-2.62746 -0.69263,-0.58178 -1.24236,-1.11767 -1.22168,-1.19057 0.0207,-0.0729 0.5833,-0.0944 1.25034,-0.0478 2.47631,0.17283 6.40512,-0.69072 9.02262,-1.98303 1.07493,-0.5307 1.0907,-0.5499 0.58091,-0.70313 -0.28821,-0.0866 -1.47883,-0.3252 -2.64574,-0.53043 -1.16691,-0.20516 -2.40947,-0.51624 -2.7614,-0.69136 -0.63768,-0.31723 -0.63422,-0.31924 1.03694,-0.54394 2.30346,-0.30971 4.254,-0.79501 6.70817,-1.66872 2.2786,-0.81122 6.05969,-2.67107 5.9296,-2.91676 -0.0618,-0.11673 -9.47971,-0.89439 -13.8536,-1.1439 -0.51757,-0.0294 -0.51115,-0.0403 0.28665,-0.49214 0.60451,-0.3424 1.27907,-0.46282 2.60557,-0.46528 4.25499,-0.008 8.83971,-1.34374 13.57738,-3.95554 2.75574,-1.51919 8.70381,-5.79465 8.51993,-6.12418 -0.0409,-0.0733 -1.65961,0.52857 -3.59744,1.33751 -4.07428,1.7008 -5.73436,2.12466 -10.0091,2.55642 -4.73351,0.47808 -4.68047,0.49803 -2.54561,-0.95448 1.41363,-0.96181 2.01192,-1.2377 2.82422,-1.3027 1.89272,-0.15145 5.07456,-0.88147 6.92395,-1.5882 3.09714,-1.18353 6.53834,-3.33468 8.68027,-5.42626 1.00682,-0.98313 3.58982,-4.22901 3.49727,-4.39489 -0.0334,-0.0597 -1.35121,0.52172 -2.92834,1.29207 -1.57715,0.77038 -3.97178,1.7212 -5.3214,2.11296 -3.00145,0.87126 -9.50587,2.20539 -9.63535,1.97641 -0.0519,-0.0917 0.25506,-0.54537 0.6821,-1.00799 0.53492,-0.57946 1.43432,-1.1403 2.89031,-1.80363 6.16863,-2.8103 12.24879,-7.50589 16.99993,-13.128045 1.56594,-1.853008 5.66436,-7.773614 5.4276,-7.84078 -0.0894,-0.02542 -1.49603,1.140836 -3.12603,2.591654 -3.62235,3.224199 -5.2913,4.43608 -9.30276,6.755746 -3.6686,2.121406 -11.14838,5.960055 -11.16175,5.728047 -0.0269,-0.467208 1.42293,-2.11418 2.10691,-2.393438 0.41719,-0.170343 0.7946,-0.437526 0.83894,-0.593818 0.0443,-0.156309 0.20734,-0.248283 0.36212,-0.204369 0.31382,0.08905 2.97414,-1.679955 5.12141,-3.405646 3.49121,-2.805798 7.60907,-7.111183 10.27551,-10.743025 1.53357,-2.088808 4.18898,-6.536536 3.9439,-6.606064 -0.0982,-0.02785 -0.84103,0.51155 -1.65039,1.198789 -5.02933,4.270427 -10.30259,8.303217 -14.80299,11.320553 -2.71878,1.822834 -3.9455,2.552611 -3.8754,2.305549 0.0179,-0.06303 0.66604,-0.692557 1.44043,-1.399082 3.53708,-3.227108 6.87293,-7.184137 9.17384,-10.881621 1.10236,-1.771451 3.7741,-7.597106 3.61489,-7.882404 -0.0226,-0.04044 -0.0409,-0.07312 -0.072,-0.08093 z" />
    <path
       id="path1056"
       style="fill:#000000;stroke-width:0.206928"
       d="m 10.732094,70.344824 c 0.1347,-0.03418 0.51026,0.403363 2.515586,2.739633 3.118171,3.632742 5.391279,6.004363 8.185281,8.540182 2.562228,2.325469 6.015057,5.094274 5.915576,4.743562 -0.03441,-0.121092 -0.430127,-0.663213 -0.87943,-1.204507 -0.875011,-1.054132 -1.074742,-1.434675 -0.697055,-1.327223 0.129819,0.03692 1.605336,1.245245 3.279394,2.685098 1.674065,1.439866 3.849563,3.16368 4.834083,3.830812 2.057071,1.393905 4.907038,2.995119 4.826616,2.711657 -0.02995,-0.105699 -0.466798,-0.801494 -0.970497,-1.546264 -0.844549,-1.248764 -3.044606,-5.783239 -3.380452,-6.967129 -0.218891,-0.771587 0.128185,-0.456069 2.277892,2.070625 2.824044,3.319246 4.216977,4.384274 9.892218,7.56442 9.465305,5.303949 11.829806,7.17206 14.894466,11.76596 1.393897,2.08944 2.335394,4.86108 2.083467,6.13442 -0.09969,0.50384 -0.293387,1.07969 -0.430596,1.27954 -0.3873,0.56411 -0.526167,1.56411 -0.317451,2.28552 0.688318,2.3785 2.942325,5.23057 5.156816,6.52496 2.000969,1.16954 4.112896,1.34169 6.86874,0.5599 1.328991,-0.37702 2.560135,-0.35072 3.441654,0.073 0.275843,0.13262 0.903682,0.2412 1.395202,0.24151 2.550918,0.002 4.549207,1.36533 6.906404,4.71325 0.130436,0.18528 0.221886,0.17113 0.379564,-0.0585 0.280449,-0.40853 1.65718,0.47494 2.292284,1.47123 l 0.462913,0.72696 0.506323,-0.78304 c 0.250456,-0.38746 0.514873,-0.72515 0.627682,-0.80696 l 0.153095,0.53968 -0.0016,-0.002 -0.115023,1.97433 c -0.176838,3.03967 -0.886749,4.38667 -2.562542,4.86206 -0.911659,0.25863 -2.423879,-0.20633 -3.259916,-1.00223 -0.294919,-0.28074 -0.632664,-0.43801 -0.750745,-0.34955 -0.841897,0.63055 -1.908325,1.11146 -2.684161,1.21096 -0.844776,0.10837 -0.956067,0.18861 -1.560483,1.12326 -1.337852,2.06882 -1.504751,2.36232 -1.980825,3.48291 -0.268023,0.63088 -0.821329,1.49547 -1.229502,1.92126 -0.778352,0.81194 -2.70149,2.05054 -2.959932,1.90633 -0.08297,-0.0463 -0.06585,-0.40819 0.03825,-0.80401 0.104089,-0.39587 0.121162,-0.65882 0.03785,-0.58462 -1.447194,1.2901 -2.397318,2.01316 -3.551285,2.70214 -2.01762,1.20463 -2.216803,1.14022 -1.315193,-0.423 0.416321,-0.72181 0.743078,-1.36122 0.726028,-1.42134 -0.01698,-0.06 -0.454888,0.18774 -0.972879,0.55117 -0.517995,0.36339 -1.639811,0.92979 -2.493001,1.2584 l -1.55122,0.59759 1.022972,-1.95171 c 0.562628,-1.07336 0.969285,-1.98168 0.903698,-2.01829 -0.06554,-0.0366 -0.821383,0.29577 -1.679663,0.73866 -1.579276,0.81486 -4.755782,1.65791 -5.236417,1.38971 -0.115436,-0.0643 0.174062,-0.63564 0.643138,-1.26928 1.380309,-1.86455 1.448296,-1.83445 -1.8534,-0.8156 -2.908805,0.89761 -3.958261,1.10167 -4.047326,0.78769 -0.02464,-0.0869 0.411685,-0.61746 0.969519,-1.17909 0.557827,-0.56162 1.064105,-1.13477 1.125406,-1.27372 0.07531,-0.17077 -0.738177,-0.0129 -2.509707,0.48719 -2.194732,0.61937 -2.886328,0.7325 -4.247994,0.69341 -0.894548,-0.0257 -1.725283,-0.096 -1.846085,-0.15603 -0.120832,-0.0601 0.143897,-0.32111 0.588208,-0.58025 2.019609,-1.17793 2.53098,-1.55838 3.324732,-2.4715 l 0.847948,-0.9753 -2.67869,0.63048 c -1.473139,0.34677 -3.010008,0.65526 -3.415522,0.68537 -1.052929,0.0781 -5.476777,-0.0975 -5.736862,-0.22773 -0.120058,-0.0602 0.160008,-0.2671 0.622311,-0.46009 3.313286,-1.38357 3.814293,-1.64784 4.98065,-2.62746 0.692635,-0.58178 1.242366,-1.11767 1.221688,-1.19057 -0.02065,-0.0729 -0.583307,-0.0944 -1.250337,-0.0478 -2.476316,0.17283 -6.405116,-0.69072 -9.022618,-1.98303 -1.07493,-0.5307 -1.090704,-0.5499 -0.580914,-0.70313 0.288216,-0.0866 1.478833,-0.3252 2.645736,-0.53043 1.166916,-0.20516 2.409471,-0.51624 2.761404,-0.69136 0.637677,-0.31723 0.634213,-0.31924 -1.036943,-0.54394 -2.303459,-0.30971 -4.254002,-0.79501 -6.708161,-1.66872 -2.278606,-0.81122 -6.059689,-2.67107 -5.929605,-2.91676 0.06179,-0.11673 9.479708,-0.89439 13.853596,-1.1439 0.517572,-0.0294 0.511159,-0.0403 -0.286652,-0.49214 -0.604509,-0.3424 -1.27907,-0.46282 -2.605565,-0.46528 -4.254985,-0.008 -8.839707,-1.34374 -13.577379,-3.95554 -2.755741,-1.51919 -8.703798,-5.79465 -8.519921,-6.12418 0.0409,-0.0733 1.659605,0.52857 3.597436,1.33751 4.074268,1.7008 5.73435,2.12466 10.009095,2.55642 4.733506,0.47808 4.680472,0.49803 2.545614,-0.95448 -1.413636,-0.96181 -2.011923,-1.2377 -2.824226,-1.3027 -1.892715,-0.15145 -5.074565,-0.88147 -6.923945,-1.5882 -3.097139,-1.18353 -6.538337,-3.33468 -8.68027,-5.42626 -1.006809,-0.98313 -3.589822,-4.22901 -3.497262,-4.39489 0.03339,-0.0597 1.351212,0.52172 2.928338,1.29207 1.577138,0.77038 3.971776,1.7212 5.321395,2.11296 3.001447,0.87126 9.505867,2.20539 9.635342,1.97641 0.05185,-0.0917 -0.255055,-0.54537 -0.6821,-1.00799 -0.534919,-0.57946 -1.434316,-1.1403 -2.890303,-1.80363 -6.16863,-2.8103 -12.24878,-7.50589 -16.999926,-13.128045 -1.5659414,-1.853008 -5.6643623,-7.773614 -5.4275991,-7.84078 0.089408,-0.02542 1.496031,1.140836 3.1260252,2.591654 3.6223539,3.224199 5.2913019,4.43608 9.3027609,6.755746 3.668599,2.121406 11.148381,5.960055 11.161748,5.728047 C 27.235998,99.24265 25.786169,97.595678 25.102192,97.31642 24.684994,97.146077 24.30758,96.878894 24.263243,96.722602 24.218893,96.566293 24.05591,96.474319 23.901119,96.518233 23.5873,96.607283 20.926995,94.838278 18.779727,93.112588 15.288499,90.306949 11.170644,86.001564 8.5042059,82.369722 6.9706451,80.280914 4.3152357,75.833186 4.5603115,75.763658 c 0.098215,-0.02785 0.8410218,0.51155 1.6503838,1.198789 5.0293277,4.270427 10.3025867,8.303217 14.8029867,11.320553 2.718779,1.822834 3.945496,2.552611 3.875406,2.305549 -0.01784,-0.06303 -0.666045,-0.692557 -1.440429,-1.399082 -3.537093,-3.227108 -6.872935,-7.184137 -9.173844,-10.881621 -1.102357,-1.771451 -3.774095,-7.597106 -3.614893,-7.882404 0.02261,-0.04044 0.0409,-0.07312 0.07203,-0.08093 z" />
  </g>
</svg>
